<?xml version="1.0" standalone="no" ?>
<!DOCTYPE svg PUBLIC "-//W3C//DTD SVG 1.1//EN" "http://www.w3.org/Graphics/SVG/1.1/DTD/svg11.dtd">
<svg width="403px" height="238px" viewBox="0 0 403 238" style="background-color: #ffffff00" xmlns="http://www.w3.org/2000/svg" xmlns:xlink="http://www.w3.org/1999/xlink" version="1.1" >
<text x="0" y="0" stroke="none" fill="#e1e100" transform="matrix(0.0666667 0 0 0.0666667 114.378 66.1871)" font-style="normal" font-weight="normal" font-size="200px" font-family="Arial" >
S</text>
<text x="0" y="0" stroke="none" fill="#e1e100" transform="matrix(0.0666667 0 0 0.0666667 132.868 108.867)" font-style="normal" font-weight="normal" font-size="200px" font-family="Arial" >
S</text>
<text x="0" y="0" stroke="none" fill="#e1e100" transform="matrix(0.0666667 0 0 0.0666667 101.964 183.63)" font-style="normal" font-weight="normal" font-size="200px" font-family="Arial" >
S</text>
<text x="0" y="0" stroke="none" fill="#e1e100" transform="matrix(0.0666667 0 0 0.0666667 46.3795 137.006)" font-style="normal" font-weight="normal" font-size="200px" font-family="Arial" >
S</text>
<path stroke="none" fill="#000000" transform="matrix(0.0666667 0 0 0.0666667 -50.3333 -139.333)" d="M 1353.39,3770.5 L 1346.01,3769.72 L 1343.34,3763.72 L 1573.62,3508.05 L 1576.74,3522.52 L 1353.39,3770.5 Z " />
<path stroke="none" fill="#000000" transform="matrix(0.0666667 0 0 0.0666667 -50.3333 -139.333)" d="M 1426.22,3781.74 L 1417.3,3773.71 L 1586.74,3585.58 L 1595.66,3593.61 L 1426.22,3781.74 Z " />
<path stroke="none" fill="#000000" transform="matrix(0.0666667 0 0 0.0666667 -50.3333 -139.333)" d="M 1576.74,3522.52 L 1573.62,3508.05 L 1887.43,3645.49 L 1887.42,3652.04 L 1881.01,3655.79 L 1576.74,3522.52 Z " />
<path stroke="none" fill="#000000" transform="matrix(0.0666667 0 0 0.0666667 -50.3333 -139.333)" d="M 1893.04,3656.14 L 1887.42,3652.04 L 1887.43,3645.49 L 2196.33,3510.97 L 2201.92,3515.08 L 2201.17,3521.95 L 1893.04,3656.14 Z " />
<path stroke="none" fill="#000000" transform="matrix(0.0666667 0 0 0.0666667 -50.3333 -139.333)" d="M 1947.62,3699.71 L 1942.83,3688.71 L 2191.82,3580.28 L 2196.61,3591.28 L 1947.62,3699.71 Z " />
<path stroke="none" fill="#000000" transform="matrix(0.0666667 0 0 0.0666667 -50.3333 -139.333)" d="M 2208.26,3512.27 L 2201.92,3515.08 L 2196.33,3510.97 L 2232.76,3176.5 L 2239.05,3174.09 L 2244.69,3177.8 L 2208.26,3512.27 Z " />
<path stroke="none" fill="#000000" transform="matrix(0.0666667 0 0 0.0666667 -50.3333 -139.333)" d="M 2239.85,3166.74 L 2239.05,3174.09 L 2232.76,3176.5 L 1976.98,2946.15 L 1991.48,2943.06 L 2239.85,3166.74 Z " />
<path stroke="none" fill="#000000" transform="matrix(0.0666667 0 0 0.0666667 -50.3333 -139.333)" d="M 2251.31,3093.99 L 2243.28,3102.9 L 2054.8,2933.17 L 2062.83,2924.25 L 2251.31,3093.99 Z " />
<path stroke="none" fill="#000000" transform="matrix(0.0666667 0 0 0.0666667 -50.3333 -139.333)" d="M 1991.48,2943.06 L 1976.98,2946.15 L 2116.64,2631.45 L 2123.36,2631.1 L 2127.08,2637.52 L 1991.48,2943.06 Z " />
<path stroke="none" fill="#000000" transform="matrix(0.0666667 0 0 0.0666667 -50.3333 -139.333)" d="M 2127.08,2637.52 L 2123.36,2631.1 L 2127.03,2625.45 L 2462.28,2660.77 L 2464.69,2667.06 L 2459.74,2672.57 L 2127.08,2637.52 Z " />
<path stroke="none" fill="#000000" transform="matrix(0.0666667 0 0 0.0666667 -50.3333 -139.333)" d="M 2160.97,2703.21 L 2162.23,2691.28 L 2414.34,2717.84 L 2413.08,2729.77 L 2160.97,2703.21 Z " />
<path stroke="none" fill="#000000" transform="matrix(0.0666667 0 0 0.0666667 -50.3333 -139.333)" d="M 2459.74,2672.57 L 2464.69,2667.06 L 2471.2,2668.79 L 2522.61,2907.71 L 2510.88,2910.23 L 2459.74,2672.57 Z " />
<path stroke="none" fill="#000000" transform="matrix(0.0666667 0 0 0.0666667 -50.3333 -139.333)" d="M 2244.69,3177.8 L 2239.05,3174.09 L 2239.85,3166.74 L 2443.3,3051.29 L 2449.22,3061.73 L 2244.69,3177.8 Z " />
<path stroke="none" fill="#000000" transform="matrix(0.0666667 0 0 0.0666667 -50.3333 -139.333)" d="M 2201.17,3521.95 L 2201.92,3515.08 L 2208.26,3512.27 L 2480.89,3710.09 L 2479.53,3716.52 L 2473.2,3719.34 L 2201.17,3521.95 Z " />
<path stroke="none" fill="#000000" transform="matrix(0.0666667 0 0 0.0666667 -50.3333 -139.333)" d="M 2485.05,3721.48 L 2479.53,3716.52 L 2480.89,3710.09 L 2719.34,3659.22 L 2721.84,3670.96 L 2485.05,3721.48 Z " />
<path stroke="none" fill="#000000" transform="matrix(0.0666667 0 0 0.0666667 -50.3333 -139.333)" d="M 2866.6,3746.8 L 2876.99,3740.79 L 2989.99,3936.35 L 2986.32,3942 L 2978.95,3941.22 L 2866.6,3746.8 Z " />
<path stroke="none" fill="#000000" transform="matrix(0.0666667 0 0 0.0666667 -50.3333 -139.333)" d="M 2978.95,3941.22 L 2986.32,3942 L 2988.74,3948.28 L 2758.47,4204.07 L 2755.39,4189.57 L 2978.95,3941.22 Z " />
<path stroke="none" fill="#000000" transform="matrix(0.0666667 0 0 0.0666667 -50.3333 -139.333)" d="M 2905.99,3930.03 L 2914.91,3938.06 L 2745.51,4126.23 L 2736.59,4118.2 L 2905.99,3930.03 Z " />
<path stroke="none" fill="#000000" transform="matrix(0.0666667 0 0 0.0666667 -50.3333 -139.333)" d="M 2755.39,4189.57 L 2758.47,4204.07 L 2443.87,4064.17 L 2443.86,4057.61 L 2450.28,4053.9 L 2755.39,4189.57 Z " />
<path stroke="none" fill="#000000" transform="matrix(0.0666667 0 0 0.0666667 -50.3333 -139.333)" d="M 2473.2,3719.34 L 2479.53,3716.52 L 2485.05,3721.48 L 2450.28,4053.9 L 2443.86,4057.61 L 2438.26,4053.54 L 2473.2,3719.34 Z " />
<path stroke="none" fill="#000000" transform="matrix(0.0666667 0 0 0.0666667 -50.3333 -139.333)" d="M 2408.46,3744.92 L 2420.4,3746.17 L 2392.14,4016.36 L 2380.21,4015.11 L 2408.46,3744.92 Z " />
<path stroke="none" fill="#000000" transform="matrix(0.0666667 0 0 0.0666667 -50.3333 -139.333)" d="M 2438.26,4053.54 L 2443.86,4057.61 L 2443.87,4064.17 L 2136.18,4201.32 L 2130.58,4197.26 L 2131.3,4190.37 L 2438.26,4053.54 Z " />
<path stroke="none" fill="#000000" transform="matrix(0.0666667 0 0 0.0666667 -50.3333 -139.333)" d="M 2124.25,4200.08 L 2130.58,4197.26 L 2136.18,4201.32 L 2101.24,4535.96 L 2094.96,4538.4 L 2089.31,4534.72 L 2124.25,4200.08 Z " />
<path stroke="none" fill="#000000" transform="matrix(0.0666667 0 0 0.0666667 -50.3333 -139.333)" d="M 2089.31,4534.72 L 2094.96,4538.4 L 2094.19,4545.75 L 1804.13,4711.53 L 1790.51,4705.49 L 2089.31,4534.72 Z " />
<path stroke="none" fill="#000000" transform="matrix(0.0666667 0 0 0.0666667 -50.3333 -139.333)" d="M 2084.09,4608.78 L 2090.04,4619.2 L 1870.31,4744.78 L 1864.35,4734.37 L 2084.09,4608.78 Z " />
<path stroke="none" fill="#000000" transform="matrix(0.0666667 0 0 0.0666667 -50.3333 -139.333)" d="M 1790.51,4705.49 L 1804.13,4711.53 L 1876.45,5040.52 L 1871.52,5046.06 L 1865,5044.35 L 1790.51,4705.49 Z " />
<path stroke="none" fill="#000000" transform="matrix(0.0666667 0 0 0.0666667 -50.3333 -139.333)" d="M 1873.96,5052.33 L 1871.52,5046.06 L 1876.45,5040.52 L 2209.02,5074.04 L 2212.75,5080.45 L 2209.09,5086.11 L 1873.96,5052.33 Z " />
<path stroke="none" fill="#000000" transform="matrix(0.0666667 0 0 0.0666667 -50.3333 -139.333)" d="M 1921.61,4995.09 L 1922.81,4983.15 L 2174.94,5008.56 L 2173.74,5020.5 L 1921.61,4995.09 Z " />
<path stroke="none" fill="#000000" transform="matrix(0.0666667 0 0 0.0666667 -50.3333 -139.333)" d="M 2219.47,5080.09 L 2212.75,5080.45 L 2209.02,5074.04 L 2299.74,4868.24 L 2310.72,4873.08 L 2219.47,5080.09 Z " />
<path stroke="none" fill="#000000" transform="matrix(0.0666667 0 0 0.0666667 -50.3333 -139.333)" d="M 2094.19,4545.75 L 2094.96,4538.4 L 2101.24,4535.96 L 2282.45,4697.26 L 2274.47,4706.22 L 2094.19,4545.75 Z " />
<path stroke="none" fill="#000000" transform="matrix(0.0666667 0 0 0.0666667 -50.3333 -139.333)" d="M 1881.01,3655.79 L 1887.42,3652.04 L 1893.04,3656.14 L 1859.08,3992.97 L 1852.76,3995.8 L 1847.23,3990.84 L 1881.01,3655.79 Z " />
<path stroke="none" fill="#000000" transform="matrix(0.0666667 0 0 0.0666667 -50.3333 -139.333)" d="M 2131.3,4190.37 L 2130.58,4197.26 L 2124.25,4200.08 L 1851.4,4002.22 L 1852.76,3995.8 L 1859.08,3992.97 L 2131.3,4190.37 Z " />
<path stroke="none" fill="#000000" transform="matrix(0.0666667 0 0 0.0666667 -50.3333 -139.333)" d="M 2141.51,4121.47 L 2134.46,4131.18 L 1914.26,3971.51 L 1921.31,3961.79 L 2141.51,4121.47 Z " />
<path stroke="none" fill="#000000" transform="matrix(0.0666667 0 0 0.0666667 -50.3333 -139.333)" d="M 1847.23,3990.84 L 1852.76,3995.8 L 1851.4,4002.22 L 1604.81,4054.64 L 1602.32,4042.91 L 1847.23,3990.84 Z " />
<path stroke="none" fill="#000000" transform="matrix(0.0666667 0 0 0.0666667 -50.3333 -139.333)" d="M 1342.55,3775.72 L 1346.01,3769.72 L 1353.39,3770.5 L 1473.23,3978.45 L 1462.83,3984.44 L 1342.55,3775.72 Z " />
<path stroke="none" fill="#000000" transform="matrix(0.0666667 0 0 0.0666667 -50.3333 -139.333)" d="M 2988.74,3948.28 L 2986.32,3942 L 2989.99,3936.35 L 3325.03,3971.49 L 3327.45,3977.77 L 3323.78,3983.42 L 2988.74,3948.28 Z " />
<text x="0" y="0" stroke="none" fill="#e1e100" transform="matrix(0.0666667 0 0 0.0666667 182.325 114.051)" font-style="normal" font-weight="normal" font-size="200px" font-family="Arial" >
S</text>
<path stroke="none" fill="#000000" transform="matrix(0.0666667 0 0 0.0666667 -50.3333 -139.333)" d="M 3323.78,3983.42 L 3327.45,3977.77 L 3334.82,3978.55 L 3501.39,4267.75 L 3498.36,4274.53 L 3491.64,4274.87 L 3323.78,3983.42 Z " />
<path stroke="none" fill="#000000" transform="matrix(0.0666667 0 0 0.0666667 -50.3333 -139.333)" d="M 3397.97,3988.73 L 3408.37,3982.74 L 3534.63,4201.96 L 3524.23,4207.94 L 3397.97,3988.73 Z " />
<path stroke="none" fill="#000000" transform="matrix(0.0666667 0 0 0.0666667 -50.3333 -139.333)" d="M 3502.6,4279.76 L 3498.36,4274.53 L 3501.39,4267.75 L 3828.5,4198.56 L 3839.52,4208.5 L 3502.6,4279.76 Z " />
<path stroke="none" fill="#000000" transform="matrix(0.0666667 0 0 0.0666667 -50.3333 -139.333)" d="M 3839.52,4208.5 L 3828.5,4198.56 L 3863.48,3866.01 L 3869.9,3862.3 L 3875.55,3865.97 L 3839.52,4208.5 Z " />
<path stroke="none" fill="#000000" transform="matrix(0.0666667 0 0 0.0666667 -50.3333 -139.333)" d="M 3783.25,4153.03 L 3771.32,4151.77 L 3797.82,3899.84 L 3809.75,3901.09 L 3783.25,4153.03 Z " />
<path stroke="none" fill="#000000" transform="matrix(0.0666667 0 0 0.0666667 -50.3333 -139.333)" d="M 3869.55,3855.58 L 3869.9,3862.3 L 3863.48,3866.01 L 3647.85,3769.98 L 3652.73,3759.02 L 3869.55,3855.58 Z " />
<path stroke="none" fill="#000000" transform="matrix(0.0666667 0 0 0.0666667 -50.3333 -139.333)" d="M 3477.82,3801.43 L 3486.75,3809.45 L 3334.82,3978.55 L 3327.45,3977.77 L 3325.03,3971.49 L 3477.82,3801.43 Z " />
<text x="0" y="0" stroke="none" fill="#80ff80" transform="matrix(0.0666667 0 0 0.0666667 75.7187 21.4701)" font-style="normal" font-weight="normal" font-size="200px" font-family="Arial" >
F</text>
<path stroke="none" fill="#000000" transform="matrix(0.0666667 0 0 0.0666667 -50.3333 -139.333)" d="M 2127.03,2625.45 L 2123.36,2631.1 L 2116.64,2631.45 L 1979.03,2393.11 L 1989.42,2387.11 L 2127.03,2625.45 Z " />
<text x="0" y="0" stroke="none" fill="#80ff80" transform="matrix(0.0666667 0 0 0.0666667 104.544 224.366)" font-style="normal" font-weight="normal" font-size="200px" font-family="Arial" >
F</text>
<path stroke="none" fill="#000000" transform="matrix(0.0666667 0 0 0.0666667 -50.3333 -139.333)" d="M 2209.09,5086.11 L 2212.75,5080.45 L 2219.47,5080.09 L 2335.22,5280.57 L 2324.82,5286.57 L 2209.09,5086.11 Z " />
<path stroke="none" fill="#000000" transform="matrix(0.0666667 0 0 0.0666667 -50.3333 -139.333)" d="M 1343.34,3763.72 L 1346.01,3769.72 L 1342.55,3775.72 L 1058.01,3775.72 L 1058.01,3763.72 L 1343.34,3763.72 Z " />
<path stroke="#000000" stroke-width="12" fill="none" transform="matrix(0.0666667 0 0 0.0666667 -50.3333 -139.333)" d="M 6570.86,3772.41 L 6598.44,3772.41 " />
<path stroke="#000000" stroke-width="12" fill="none" transform="matrix(0.0666667 0 0 0.0666667 -50.3333 -139.333)" d="M 6598.44,3772.41 L 6598.44,4146.81 " />
<path stroke="#000000" stroke-width="12" fill="none" transform="matrix(0.0666667 0 0 0.0666667 -50.3333 -139.333)" d="M 6598.44,4146.81 L 6570.86,4146.81 " />
<text x="0" y="0" stroke="none" fill="#000000" transform="matrix(0.0666667 0 0 0.0666667 393.479 140.193)" font-style="normal" font-weight="normal" font-size="150px" font-family="Arial" >
n</text>
<path stroke="#000000" stroke-width="12" fill="none" transform="matrix(0.0666667 0 0 0.0666667 -50.3333 -139.333)" d="M 1162.34,3970.17 L 1133.35,3970.17 " />
<path stroke="#000000" stroke-width="12" fill="none" transform="matrix(0.0666667 0 0 0.0666667 -50.3333 -139.333)" d="M 1133.35,3970.17 L 1133.35,3576.19 " />
<path stroke="#000000" stroke-width="12" fill="none" transform="matrix(0.0666667 0 0 0.0666667 -50.3333 -139.333)" d="M 1133.35,3576.19 L 1162.34,3576.19 " />
<text x="0" y="0" stroke="none" fill="#e1e100" transform="matrix(0.0666667 0 0 0.0666667 243.904 121.214)" font-style="normal" font-weight="normal" font-size="200px" font-family="Arial" >
S</text>
<path stroke="none" fill="#000000" transform="matrix(0.0666667 0 0 0.0666667 -50.3333 -139.333)" d="M 4167.3,3697.53 L 4166.95,3690.8 L 4173.44,3687.12 L 4397.51,3786.82 L 4392.64,3797.79 L 4167.3,3697.53 Z " />
<path stroke="none" fill="#000000" transform="matrix(0.0666667 0 0 0.0666667 -50.3333 -139.333)" d="M 4549.37,3762.43 L 4540.45,3754.4 L 4702.42,3574.56 L 4709.8,3575.33 L 4712.47,3581.33 L 4549.37,3762.43 Z " />
<path stroke="none" fill="#000000" transform="matrix(0.0666667 0 0 0.0666667 -50.3333 -139.333)" d="M 4713.26,3569.33 L 4709.8,3575.33 L 4702.42,3574.56 L 4535.37,3285.33 L 4538.29,3278.38 L 4545.21,3278.38 L 4713.26,3569.33 Z " />
<path stroke="none" fill="#000000" transform="matrix(0.0666667 0 0 0.0666667 -50.3333 -139.333)" d="M 4750.62,3510.61 L 4740.23,3516.61 L 4604.37,3281.37 L 4614.76,3275.37 L 4750.62,3510.61 Z " />
<path stroke="none" fill="#000000" transform="matrix(0.0666667 0 0 0.0666667 -50.3333 -139.333)" d="M 4534.35,3273.2 L 4538.29,3278.38 L 4535.37,3285.33 L 4211.71,3368.53 L 4200.77,3358.95 L 4534.35,3273.2 Z " />
<path stroke="none" fill="#000000" transform="matrix(0.0666667 0 0 0.0666667 -50.3333 -139.333)" d="M 4200.77,3358.95 L 4211.71,3368.53 L 4173.44,3687.12 L 4166.95,3690.8 L 4161.35,3687.11 L 4200.77,3358.95 Z " />
<path stroke="none" fill="#000000" transform="matrix(0.0666667 0 0 0.0666667 -50.3333 -139.333)" d="M 4254.32,3410.36 L 4266.23,3411.79 L 4237,3655.14 L 4225.08,3653.7 L 4254.32,3410.36 Z " />
<path stroke="none" fill="#000000" transform="matrix(0.0666667 0 0 0.0666667 -50.3333 -139.333)" d="M 4712.47,3581.33 L 4709.8,3575.33 L 4713.26,3569.33 L 5049.35,3569.33 L 5052.81,3575.33 L 5050.14,3581.33 L 4712.47,3581.33 Z " />
<path stroke="none" fill="#000000" transform="matrix(0.0666667 0 0 0.0666667 -50.3333 -139.333)" d="M 5060.19,3574.56 L 5052.81,3575.33 L 5049.35,3569.33 L 5217.4,3278.38 L 5224.32,3278.38 L 5227.34,3285.16 L 5060.19,3574.56 Z " />
<path stroke="none" fill="#000000" transform="matrix(0.0666667 0 0 0.0666667 -50.3333 -139.333)" d="M 5022.38,3516.61 L 5011.99,3510.61 L 5147.85,3275.37 L 5158.24,3281.37 L 5022.38,3516.61 Z " />
<path stroke="none" fill="#000000" transform="matrix(0.0666667 0 0 0.0666667 -50.3333 -139.333)" d="M 5228.18,3273.07 L 5224.32,3278.38 L 5217.4,3278.38 L 5049.35,2987.23 L 5052.81,2981.23 L 5059.35,2980.55 L 5228.18,3273.07 Z " />
<path stroke="none" fill="#000000" transform="matrix(0.0666667 0 0 0.0666667 -50.3333 -139.333)" d="M 5048.45,2975.23 L 5052.81,2981.23 L 5049.35,2987.23 L 4713.26,2987.23 L 4709.8,2981.23 L 4714.15,2975.23 L 5048.45,2975.23 Z " />
<path stroke="none" fill="#000000" transform="matrix(0.0666667 0 0 0.0666667 -50.3333 -139.333)" d="M 4703.26,2980.55 L 4709.8,2981.23 L 4713.26,2987.23 L 4545.21,3278.38 L 4538.29,3278.38 L 4534.35,3273.2 L 4703.26,2980.55 Z " />
<text x="0" y="0" stroke="none" fill="#e1e100" transform="matrix(0.0666667 0 0 0.0666667 297.377 121.214)" font-style="normal" font-weight="normal" font-size="200px" font-family="Arial" >
S</text>
<path stroke="none" fill="#000000" transform="matrix(0.0666667 0 0 0.0666667 -50.3333 -139.333)" d="M 5050.14,3581.33 L 5052.81,3575.33 L 5060.19,3574.56 L 5221.13,3753.26 L 5212.22,3761.29 L 5050.14,3581.33 Z " />
<path stroke="none" fill="#000000" transform="matrix(0.0666667 0 0 0.0666667 -50.3333 -139.333)" d="M 5368.62,3798.39 L 5363.74,3787.43 L 5589.24,3687.09 L 5595.66,3690.8 L 5595.31,3697.53 L 5368.62,3798.39 Z " />
<path stroke="none" fill="#000000" transform="matrix(0.0666667 0 0 0.0666667 -50.3333 -139.333)" d="M 5601.31,3687.14 L 5595.66,3690.8 L 5589.24,3687.09 L 5554.25,3354.54 L 5565.27,3344.62 L 5601.31,3687.14 Z " />
<path stroke="none" fill="#000000" transform="matrix(0.0666667 0 0 0.0666667 -50.3333 -139.333)" d="M 5535.51,3652 L 5523.58,3653.25 L 5497.07,3401.3 L 5509.01,3400.05 L 5535.51,3652 Z " />
<path stroke="none" fill="#000000" transform="matrix(0.0666667 0 0 0.0666667 -50.3333 -139.333)" d="M 5565.27,3344.62 L 5554.25,3354.54 L 5227.34,3285.16 L 5224.32,3278.38 L 5228.18,3273.07 L 5565.27,3344.62 Z " />
<text x="0" y="0" stroke="none" fill="#0000ff" transform="matrix(0.0666667 0 0 0.0666667 288.766 42.8645)" font-style="normal" font-weight="normal" font-size="200px" font-family="Arial" >
N</text>
<text x="0" y="0" stroke="none" fill="#e1e100" transform="matrix(0.0666667 0 0 0.0666667 270.64 29.423)" font-style="normal" font-weight="normal" font-size="200px" font-family="Arial" >
S</text>
<text x="0" y="0" stroke="none" fill="#0000ff" transform="matrix(0.0666667 0 0 0.0666667 251.766 42.8645)" font-style="normal" font-weight="normal" font-size="200px" font-family="Arial" >
N</text>
<path stroke="none" fill="#000000" transform="matrix(0.0666667 0 0 0.0666667 -50.3333 -139.333)" d="M 5059.35,2980.55 L 5052.81,2981.23 L 5048.45,2975.23 L 5115.11,2769.87 L 5126.52,2773.58 L 5059.35,2980.55 Z " />
<path stroke="none" fill="#000000" transform="matrix(0.0666667 0 0 0.0666667 -50.3333 -139.333)" d="M 5013.65,2921.34 L 5002.23,2917.64 L 5056.38,2750.81 L 5067.79,2754.51 L 5013.65,2921.34 Z " />
<path stroke="none" fill="#000000" transform="matrix(0.0666667 0 0 0.0666667 -50.3333 -139.333)" d="M 5069.69,2582.85 L 5062.63,2592.55 L 4965.15,2521.7 L 4972.21,2512 L 5069.69,2582.85 Z " />
<path stroke="none" fill="#000000" transform="matrix(0.0666667 0 0 0.0666667 -50.3333 -139.333)" d="M 4790.9,2511.59 L 4797.95,2521.3 L 4699.51,2592.8 L 4692.46,2583.09 L 4790.9,2511.59 Z " />
<path stroke="none" fill="#000000" transform="matrix(0.0666667 0 0 0.0666667 -50.3333 -139.333)" d="M 4635.92,2773.45 L 4647.33,2769.74 L 4714.15,2975.23 L 4709.8,2981.23 L 4703.26,2980.55 L 4635.92,2773.45 Z " />
<path stroke="none" fill="#000000" transform="matrix(0.0666667 0 0 0.0666667 -50.3333 -139.333)" d="M 4694.65,2754.35 L 4706.06,2750.64 L 4760.36,2917.62 L 4748.95,2921.33 L 4694.65,2754.35 Z " />
<path stroke="none" fill="#000000" transform="matrix(0.0666667 0 0 0.0666667 -50.3333 -139.333)" d="M 4161.35,3687.11 L 4166.95,3690.8 L 4167.3,3697.53 L 3875.55,3865.97 L 3869.9,3862.3 L 3869.55,3855.58 L 4161.35,3687.11 Z " />
<text x="0" y="0" stroke="none" fill="#e1e100" transform="matrix(0.0666667 0 0 0.0666667 358.959 114.058)" font-style="normal" font-weight="normal" font-size="200px" font-family="Arial" >
S</text>
<path stroke="none" fill="#000000" transform="matrix(0.0666667 0 0 0.0666667 -50.3333 -139.333)" d="M 6420.63,3978.58 L 6427.91,3977.8 L 6431.45,3983.8 L 6271.05,4274.87 L 6264.33,4274.62 L 6261.23,4267.83 L 6420.63,3978.58 Z " />
<path stroke="none" fill="#000000" transform="matrix(0.0666667 0 0 0.0666667 -50.3333 -139.333)" d="M 6348.65,3982.79 L 6359.16,3988.58 L 6237.98,4208.48 L 6227.47,4202.69 L 6348.65,3982.79 Z " />
<path stroke="none" fill="#000000" transform="matrix(0.0666667 0 0 0.0666667 -50.3333 -139.333)" d="M 6261.23,4267.83 L 6264.33,4274.62 L 6260.14,4279.87 L 5923.13,4208.57 L 5934.15,4198.64 L 6261.23,4267.83 Z " />
<path stroke="none" fill="#000000" transform="matrix(0.0666667 0 0 0.0666667 -50.3333 -139.333)" d="M 5934.15,4198.64 L 5923.13,4208.57 L 5887.06,3865.97 L 5892.71,3862.3 L 5899.13,3866.01 L 5934.15,4198.64 Z " />
<path stroke="none" fill="#000000" transform="matrix(0.0666667 0 0 0.0666667 -50.3333 -139.333)" d="M 5991.34,4151.84 L 5979.4,4153.1 L 5952.88,3901.12 L 5964.81,3899.86 L 5991.34,4151.84 Z " />
<path stroke="none" fill="#000000" transform="matrix(0.0666667 0 0 0.0666667 -50.3333 -139.333)" d="M 5899.13,3866.01 L 5892.71,3862.3 L 5893.06,3855.58 L 6110.24,3758.95 L 6115.12,3769.91 L 5899.13,3866.01 Z " />
<path stroke="none" fill="#000000" transform="matrix(0.0666667 0 0 0.0666667 -50.3333 -139.333)" d="M 6275.07,3811.29 L 6284.12,3803.41 L 6430.64,3971.8 L 6427.91,3977.8 L 6420.63,3978.58 L 6275.07,3811.29 Z " />
<path stroke="none" fill="#000000" transform="matrix(0.0666667 0 0 0.0666667 -50.3333 -139.333)" d="M 6431.45,3983.8 L 6427.91,3977.8 L 6430.64,3971.8 L 6715.91,3971.8 L 6715.91,3983.8 L 6431.45,3983.8 Z " />
<path stroke="none" fill="#000000" transform="matrix(0.0666667 0 0 0.0666667 -50.3333 -139.333)" d="M 5595.31,3697.53 L 5595.66,3690.8 L 5601.31,3687.14 L 5893.06,3855.58 L 5892.71,3862.3 L 5887.06,3865.97 L 5595.31,3697.53 Z " />
<path stroke="none" fill="#000000" transform="matrix(0.0666667 0 0 0.0666667 -50.3333 -139.333)" d="M 1865,5044.35 L 1871.52,5046.06 L 1873.96,5052.33 L 1645.62,5308.81 L 1641.26,5295.66 L 1865,5044.35 Z " />
<path stroke="none" fill="#000000" transform="matrix(0.0666667 0 0 0.0666667 -50.3333 -139.333)" d="M 2471.2,2668.79 L 2464.69,2667.06 L 2462.28,2660.77 L 2691.77,2405.31 L 2696.07,2418.49 L 2471.2,2668.79 Z " />
<text x="0" y="0" stroke="none" fill="#000000" transform="matrix(0.0666667 0 0 0.0666667 3.47962 231.799)" font-style="normal" font-weight="normal" font-size="200px" font-family="Arial" >
C</text>
<text x="0" y="0" stroke="none" fill="#000000" transform="matrix(0.0666667 0 0 0.0666667 13.1085 234.732)" font-style="normal" font-weight="normal" font-size="150px" font-family="Arial" >
2</text>
<text x="0" y="0" stroke="none" fill="#000000" transform="matrix(0.0666667 0 0 0.0666667 18.6701 231.799)" font-style="normal" font-weight="normal" font-size="200px" font-family="Arial" >
H</text>
<text x="0" y="0" stroke="none" fill="#000000" transform="matrix(0.0666667 0 0 0.0666667 28.299 234.732)" font-style="normal" font-weight="normal" font-size="150px" font-family="Arial" >
5</text>
<path stroke="none" fill="#000000" transform="matrix(0.0666667 0 0 0.0666667 -50.3333 -139.333)" d="M 1300.76,5231.4 L 1307.54,5232.8 L 1309.72,5239.38 L 1173.12,5392.81 L 1164.16,5384.83 L 1300.76,5231.4 Z " />
<text x="0" y="0" stroke="none" fill="#000000" transform="matrix(0.0666667 0 0 0.0666667 11.4971 193.013)" font-style="normal" font-weight="normal" font-size="200px" font-family="Arial" >
C</text>
<text x="0" y="0" stroke="none" fill="#000000" transform="matrix(0.0666667 0 0 0.0666667 21.126 195.946)" font-style="normal" font-weight="normal" font-size="150px" font-family="Arial" >
4</text>
<text x="0" y="0" stroke="none" fill="#000000" transform="matrix(0.0666667 0 0 0.0666667 26.6875 193.013)" font-style="normal" font-weight="normal" font-size="200px" font-family="Arial" >
H</text>
<text x="0" y="0" stroke="none" fill="#000000" transform="matrix(0.0666667 0 0 0.0666667 36.3164 195.946)" font-style="normal" font-weight="normal" font-size="150px" font-family="Arial" >
9</text>
<path stroke="none" fill="#000000" transform="matrix(0.0666667 0 0 0.0666667 -50.3333 -139.333)" d="M 1312.15,5227.63 L 1307.54,5232.8 L 1300.76,5231.4 L 1234.4,5031.01 L 1245.79,5027.24 L 1312.15,5227.63 Z " />
<path stroke="none" fill="#000000" transform="matrix(0.0666667 0 0 0.0666667 -50.3333 -139.333)" d="M 1641.26,5295.66 L 1645.62,5308.81 L 1309.72,5239.38 L 1307.54,5232.8 L 1312.15,5227.63 L 1641.26,5295.66 Z " />
<text x="0" y="0" stroke="none" fill="#000000" transform="matrix(0.0666667 0 0 0.0666667 153.91 53.1287)" font-style="normal" font-weight="normal" font-size="200px" font-family="Arial" >
C</text>
<text x="0" y="0" stroke="none" fill="#000000" transform="matrix(0.0666667 0 0 0.0666667 163.539 56.062)" font-style="normal" font-weight="normal" font-size="150px" font-family="Arial" >
4</text>
<text x="0" y="0" stroke="none" fill="#000000" transform="matrix(0.0666667 0 0 0.0666667 169.1 53.1287)" font-style="normal" font-weight="normal" font-size="200px" font-family="Arial" >
H</text>
<text x="0" y="0" stroke="none" fill="#000000" transform="matrix(0.0666667 0 0 0.0666667 178.729 56.062)" font-style="normal" font-weight="normal" font-size="150px" font-family="Arial" >
9</text>
<path stroke="none" fill="#000000" transform="matrix(0.0666667 0 0 0.0666667 -50.3333 -139.333)" d="M 3024.87,2487.99 L 3029.5,2482.84 L 3036.28,2484.27 L 3111.75,2715.66 L 3100.34,2719.38 L 3024.87,2487.99 Z " />
<text x="0" y="0" stroke="none" fill="#000000" transform="matrix(0.0666667 0 0 0.0666667 162.101 14.3787)" font-style="normal" font-weight="normal" font-size="200px" font-family="Arial" >
C</text>
<text x="0" y="0" stroke="none" fill="#000000" transform="matrix(0.0666667 0 0 0.0666667 171.73 17.312)" font-style="normal" font-weight="normal" font-size="150px" font-family="Arial" >
2</text>
<text x="0" y="0" stroke="none" fill="#000000" transform="matrix(0.0666667 0 0 0.0666667 177.291 14.3787)" font-style="normal" font-weight="normal" font-size="200px" font-family="Arial" >
H</text>
<text x="0" y="0" stroke="none" fill="#000000" transform="matrix(0.0666667 0 0 0.0666667 186.92 17.312)" font-style="normal" font-weight="normal" font-size="150px" font-family="Arial" >
5</text>
<path stroke="none" fill="#000000" transform="matrix(0.0666667 0 0 0.0666667 -50.3333 -139.333)" d="M 3036.28,2484.27 L 3029.5,2482.84 L 3027.36,2476.25 L 3181.64,2304.51 L 3190.57,2312.53 L 3036.28,2484.27 Z " />
<path stroke="none" fill="#000000" transform="matrix(0.0666667 0 0 0.0666667 -50.3333 -139.333)" d="M 2696.07,2418.49 L 2691.77,2405.31 L 3027.36,2476.25 L 3029.5,2482.84 L 3024.87,2487.99 L 2696.07,2418.49 Z " />
<path stroke="none" fill="#000000" transform="matrix(0.0666667 0 0 0.0666667 -50.3333 -139.333)" d="M 3491.64,4274.87 L 3498.36,4274.53 L 3502.6,4279.76 L 3365.48,4587.04 L 3351.7,4588.48 L 3491.64,4274.87 Z " />
<path stroke="none" fill="#000000" transform="matrix(0.0666667 0 0 0.0666667 -50.3333 -139.333)" d="M 3351.7,4588.48 L 3365.48,4587.04 L 3562.8,4859.09 L 3559.97,4865.42 L 3553.08,4866.13 L 3351.7,4588.48 Z " />
<text x="0" y="0" stroke="none" fill="#000000" transform="matrix(0.0666667 0 0 0.0666667 159.529 211.11)" font-style="normal" font-weight="normal" font-size="200px" font-family="Arial" >
C</text>
<text x="0" y="0" stroke="none" fill="#000000" transform="matrix(0.0666667 0 0 0.0666667 169.158 214.043)" font-style="normal" font-weight="normal" font-size="150px" font-family="Arial" >
4</text>
<text x="0" y="0" stroke="none" fill="#000000" transform="matrix(0.0666667 0 0 0.0666667 174.72 211.11)" font-style="normal" font-weight="normal" font-size="200px" font-family="Arial" >
H</text>
<text x="0" y="0" stroke="none" fill="#000000" transform="matrix(0.0666667 0 0 0.0666667 184.349 214.043)" font-style="normal" font-weight="normal" font-size="150px" font-family="Arial" >
9</text>
<path stroke="none" fill="#000000" transform="matrix(0.0666667 0 0 0.0666667 -50.3333 -139.333)" d="M 3553.08,4866.13 L 3559.97,4865.42 L 3564.04,4871.02 L 3473.27,5074.45 L 3462.31,5069.56 L 3553.08,4866.13 Z " />
<text x="0" y="0" stroke="none" fill="#000000" transform="matrix(0.0666667 0 0 0.0666667 204.927 187.856)" font-style="normal" font-weight="normal" font-size="200px" font-family="Arial" >
C</text>
<text x="0" y="0" stroke="none" fill="#000000" transform="matrix(0.0666667 0 0 0.0666667 214.556 190.79)" font-style="normal" font-weight="normal" font-size="150px" font-family="Arial" >
6</text>
<text x="0" y="0" stroke="none" fill="#000000" transform="matrix(0.0666667 0 0 0.0666667 220.118 187.856)" font-style="normal" font-weight="normal" font-size="200px" font-family="Arial" >
H</text>
<text x="0" y="0" stroke="none" fill="#000000" transform="matrix(0.0666667 0 0 0.0666667 229.747 190.79)" font-style="normal" font-weight="normal" font-size="150px" font-family="Arial" >
13</text>
<path stroke="none" fill="#000000" transform="matrix(0.0666667 0 0 0.0666667 -50.3333 -139.333)" d="M 3564.04,4871.02 L 3559.97,4865.42 L 3562.8,4859.09 L 3808.12,4833.51 L 3809.36,4845.45 L 3564.04,4871.02 Z " />
<path stroke="none" fill="#000000" transform="matrix(0.0666667 0 0 0.0666667 -50.3333 -139.333)" d="M 6260.14,4279.87 L 6264.33,4274.62 L 6271.05,4274.87 L 6414.03,4587.13 L 6400.24,4585.83 L 6260.14,4279.87 Z " />
<path stroke="none" fill="#000000" transform="matrix(0.0666667 0 0 0.0666667 -50.3333 -139.333)" d="M 6400.24,4585.83 L 6414.03,4587.13 L 6215.36,4866.74 L 6208.46,4866.08 L 6205.58,4859.78 L 6400.24,4585.83 Z " />
<text x="0" y="0" stroke="none" fill="#000000" transform="matrix(0.0666667 0 0 0.0666667 308.564 188.122)" font-style="normal" font-weight="normal" font-size="200px" font-family="Arial" >
C</text>
<text x="0" y="0" stroke="none" fill="#000000" transform="matrix(0.0666667 0 0 0.0666667 318.193 191.055)" font-style="normal" font-weight="normal" font-size="150px" font-family="Arial" >
6</text>
<text x="0" y="0" stroke="none" fill="#000000" transform="matrix(0.0666667 0 0 0.0666667 323.754 188.122)" font-style="normal" font-weight="normal" font-size="200px" font-family="Arial" >
H</text>
<text x="0" y="0" stroke="none" fill="#000000" transform="matrix(0.0666667 0 0 0.0666667 333.383 191.055)" font-style="normal" font-weight="normal" font-size="150px" font-family="Arial" >
13</text>
<path stroke="none" fill="#000000" transform="matrix(0.0666667 0 0 0.0666667 -50.3333 -139.333)" d="M 6205.58,4859.78 L 6208.46,4866.08 L 6204.45,4871.73 L 5946.32,4847.35 L 5947.45,4835.4 L 6205.58,4859.78 Z " />
<text x="0" y="0" stroke="none" fill="#000000" transform="matrix(0.0666667 0 0 0.0666667 368.27 211.063)" font-style="normal" font-weight="normal" font-size="200px" font-family="Arial" >
C</text>
<text x="0" y="0" stroke="none" fill="#000000" transform="matrix(0.0666667 0 0 0.0666667 377.899 213.996)" font-style="normal" font-weight="normal" font-size="150px" font-family="Arial" >
4</text>
<text x="0" y="0" stroke="none" fill="#000000" transform="matrix(0.0666667 0 0 0.0666667 383.46 211.063)" font-style="normal" font-weight="normal" font-size="200px" font-family="Arial" >
H</text>
<path stroke="none" fill="#000000" transform="matrix(0.0666667 0 0 0.0666667 -50.3333 -139.333)" d="M 6204.45,4871.73 L 6208.46,4866.08 L 6215.36,4866.74 L 6316.77,5088.2 L 6305.86,5093.2 L 6204.45,4871.73 Z " />
</svg>
