<?xml version="1.0" encoding="utf-8" standalone="no"?>
<!DOCTYPE svg PUBLIC "-//W3C//DTD SVG 1.1//EN"
  "http://www.w3.org/Graphics/SVG/1.1/DTD/svg11.dtd">
<svg xmlns:xlink="http://www.w3.org/1999/xlink" width="473.967812pt" height="369.69025pt" viewBox="0 0 473.967812 369.69025" xmlns="http://www.w3.org/2000/svg" version="1.1">
 <metadata>
  <rdf:RDF xmlns:dc="http://purl.org/dc/elements/1.1/" xmlns:cc="http://creativecommons.org/ns#" xmlns:rdf="http://www.w3.org/1999/02/22-rdf-syntax-ns#">
   <cc:Work>
    <dc:type rdf:resource="http://purl.org/dc/dcmitype/StillImage"/>
    <dc:date>2026-06-12T00:29:03.383833</dc:date>
    <dc:format>image/svg+xml</dc:format>
    <dc:creator>
     <cc:Agent>
      <dc:title>Matplotlib v3.10.9, https://matplotlib.org/</dc:title>
     </cc:Agent>
    </dc:creator>
   </cc:Work>
  </rdf:RDF>
 </metadata>
 <defs>
  <style type="text/css">*{stroke-linejoin: round; stroke-linecap: butt}</style>
 </defs>
 <g id="figure_1">
  <g id="patch_1">
   <path d="M 0 369.69025 
L 473.967812 369.69025 
L 473.967812 0 
L 0 0 
z
" style="fill: #ffffff"/>
  </g>
  <g id="axes_1">
   <g id="patch_2">
    <path d="M 65.007812 237.469815 
L 466.767812 237.469815 
L 466.767812 21.67 
L 65.007812 21.67 
z
" style="fill: #ffffff"/>
   </g>
   <g id="matplotlib.axis_1">
    <g id="xtick_1">
     <g id="line2d_1">
      <defs>
       <path id="m2e5e88d9dc" d="M 0 0 
L 0 3.5 
" style="stroke: #000000; stroke-width: 0.8"/>
      </defs>
      <g>
       <use xlink:href="#m2e5e88d9dc" x="80.825671" y="237.469815" style="stroke: #000000; stroke-width: 0.8"/>
      </g>
     </g>
    </g>
    <g id="xtick_2">
     <g id="line2d_2">
      <g>
       <use xlink:href="#m2e5e88d9dc" x="141.901751" y="237.469815" style="stroke: #000000; stroke-width: 0.8"/>
      </g>
     </g>
    </g>
    <g id="xtick_3">
     <g id="line2d_3">
      <g>
       <use xlink:href="#m2e5e88d9dc" x="202.977832" y="237.469815" style="stroke: #000000; stroke-width: 0.8"/>
      </g>
     </g>
    </g>
    <g id="xtick_4">
     <g id="line2d_4">
      <g>
       <use xlink:href="#m2e5e88d9dc" x="264.053912" y="237.469815" style="stroke: #000000; stroke-width: 0.8"/>
      </g>
     </g>
    </g>
    <g id="xtick_5">
     <g id="line2d_5">
      <g>
       <use xlink:href="#m2e5e88d9dc" x="325.129992" y="237.469815" style="stroke: #000000; stroke-width: 0.8"/>
      </g>
     </g>
    </g>
    <g id="xtick_6">
     <g id="line2d_6">
      <g>
       <use xlink:href="#m2e5e88d9dc" x="386.206072" y="237.469815" style="stroke: #000000; stroke-width: 0.8"/>
      </g>
     </g>
    </g>
    <g id="xtick_7">
     <g id="line2d_7">
      <g>
       <use xlink:href="#m2e5e88d9dc" x="447.282152" y="237.469815" style="stroke: #000000; stroke-width: 0.8"/>
      </g>
     </g>
    </g>
   </g>
   <g id="matplotlib.axis_2">
    <g id="ytick_1">
     <g id="line2d_8">
      <defs>
       <path id="m1940428fdb" d="M 0 0 
L -3.5 0 
" style="stroke: #000000; stroke-width: 0.8"/>
      </defs>
      <g>
       <use xlink:href="#m1940428fdb" x="65.007812" y="220.529926" style="stroke: #000000; stroke-width: 0.8"/>
      </g>
     </g>
     <g id="text_1">
      <!-- −0.004 -->
      <g transform="translate(21 224.329144) scale(0.1 -0.1)">
       <defs>
        <path id="DejaVuSans-2212" d="M 678 2272 
L 4684 2272 
L 4684 1741 
L 678 1741 
L 678 2272 
z
" transform="scale(0.015625)"/>
        <path id="DejaVuSans-30" d="M 2034 4250 
Q 1547 4250 1301 3770 
Q 1056 3291 1056 2328 
Q 1056 1369 1301 889 
Q 1547 409 2034 409 
Q 2525 409 2770 889 
Q 3016 1369 3016 2328 
Q 3016 3291 2770 3770 
Q 2525 4250 2034 4250 
z
M 2034 4750 
Q 2819 4750 3233 4129 
Q 3647 3509 3647 2328 
Q 3647 1150 3233 529 
Q 2819 -91 2034 -91 
Q 1250 -91 836 529 
Q 422 1150 422 2328 
Q 422 3509 836 4129 
Q 1250 4750 2034 4750 
z
" transform="scale(0.015625)"/>
        <path id="DejaVuSans-2e" d="M 684 794 
L 1344 794 
L 1344 0 
L 684 0 
L 684 794 
z
" transform="scale(0.015625)"/>
        <path id="DejaVuSans-34" d="M 2419 4116 
L 825 1625 
L 2419 1625 
L 2419 4116 
z
M 2253 4666 
L 3047 4666 
L 3047 1625 
L 3713 1625 
L 3713 1100 
L 3047 1100 
L 3047 0 
L 2419 0 
L 2419 1100 
L 313 1100 
L 313 1709 
L 2253 4666 
z
" transform="scale(0.015625)"/>
       </defs>
       <use xlink:href="#DejaVuSans-2212"/>
       <use xlink:href="#DejaVuSans-30" transform="translate(83.789062 0)"/>
       <use xlink:href="#DejaVuSans-2e" transform="translate(147.412109 0)"/>
       <use xlink:href="#DejaVuSans-30" transform="translate(179.199219 0)"/>
       <use xlink:href="#DejaVuSans-30" transform="translate(242.822266 0)"/>
       <use xlink:href="#DejaVuSans-34" transform="translate(306.445312 0)"/>
      </g>
     </g>
    </g>
    <g id="ytick_2">
     <g id="line2d_9">
      <g>
       <use xlink:href="#m1940428fdb" x="65.007812" y="173.041071" style="stroke: #000000; stroke-width: 0.8"/>
      </g>
     </g>
     <g id="text_2">
      <!-- −0.002 -->
      <g transform="translate(21 176.84029) scale(0.1 -0.1)">
       <defs>
        <path id="DejaVuSans-32" d="M 1228 531 
L 3431 531 
L 3431 0 
L 469 0 
L 469 531 
Q 828 903 1448 1529 
Q 2069 2156 2228 2338 
Q 2531 2678 2651 2914 
Q 2772 3150 2772 3378 
Q 2772 3750 2511 3984 
Q 2250 4219 1831 4219 
Q 1534 4219 1204 4116 
Q 875 4013 500 3803 
L 500 4441 
Q 881 4594 1212 4672 
Q 1544 4750 1819 4750 
Q 2544 4750 2975 4387 
Q 3406 4025 3406 3419 
Q 3406 3131 3298 2873 
Q 3191 2616 2906 2266 
Q 2828 2175 2409 1742 
Q 1991 1309 1228 531 
z
" transform="scale(0.015625)"/>
       </defs>
       <use xlink:href="#DejaVuSans-2212"/>
       <use xlink:href="#DejaVuSans-30" transform="translate(83.789062 0)"/>
       <use xlink:href="#DejaVuSans-2e" transform="translate(147.412109 0)"/>
       <use xlink:href="#DejaVuSans-30" transform="translate(179.199219 0)"/>
       <use xlink:href="#DejaVuSans-30" transform="translate(242.822266 0)"/>
       <use xlink:href="#DejaVuSans-32" transform="translate(306.445312 0)"/>
      </g>
     </g>
    </g>
    <g id="ytick_3">
     <g id="line2d_10">
      <g>
       <use xlink:href="#m1940428fdb" x="65.007812" y="125.552217" style="stroke: #000000; stroke-width: 0.8"/>
      </g>
     </g>
     <g id="text_3">
      <!-- 0.000 -->
      <g transform="translate(29.379687 129.351436) scale(0.1 -0.1)">
       <use xlink:href="#DejaVuSans-30"/>
       <use xlink:href="#DejaVuSans-2e" transform="translate(63.623047 0)"/>
       <use xlink:href="#DejaVuSans-30" transform="translate(95.410156 0)"/>
       <use xlink:href="#DejaVuSans-30" transform="translate(159.033203 0)"/>
       <use xlink:href="#DejaVuSans-30" transform="translate(222.65625 0)"/>
      </g>
     </g>
    </g>
    <g id="ytick_4">
     <g id="line2d_11">
      <g>
       <use xlink:href="#m1940428fdb" x="65.007812" y="78.063362" style="stroke: #000000; stroke-width: 0.8"/>
      </g>
     </g>
     <g id="text_4">
      <!-- 0.002 -->
      <g transform="translate(29.379687 81.862581) scale(0.1 -0.1)">
       <use xlink:href="#DejaVuSans-30"/>
       <use xlink:href="#DejaVuSans-2e" transform="translate(63.623047 0)"/>
       <use xlink:href="#DejaVuSans-30" transform="translate(95.410156 0)"/>
       <use xlink:href="#DejaVuSans-30" transform="translate(159.033203 0)"/>
       <use xlink:href="#DejaVuSans-32" transform="translate(222.65625 0)"/>
      </g>
     </g>
    </g>
    <g id="ytick_5">
     <g id="line2d_12">
      <g>
       <use xlink:href="#m1940428fdb" x="65.007812" y="30.574508" style="stroke: #000000; stroke-width: 0.8"/>
      </g>
     </g>
     <g id="text_5">
      <!-- 0.004 -->
      <g transform="translate(29.379687 34.373727) scale(0.1 -0.1)">
       <use xlink:href="#DejaVuSans-30"/>
       <use xlink:href="#DejaVuSans-2e" transform="translate(63.623047 0)"/>
       <use xlink:href="#DejaVuSans-30" transform="translate(95.410156 0)"/>
       <use xlink:href="#DejaVuSans-30" transform="translate(159.033203 0)"/>
       <use xlink:href="#DejaVuSans-34" transform="translate(222.65625 0)"/>
      </g>
     </g>
    </g>
    <g id="text_6">
     <!-- $\beta,\ \delta$ -->
     <g transform="translate(14.9 140.019907) rotate(-90) scale(0.1 -0.1)">
      <defs>
       <path id="DejaVuSans-Oblique-3b2" d="M 872 216 
L 572 -1331 
L -6 -1331 
L 928 3478 
Q 1206 4903 2538 4903 
Q 3888 4903 3659 3700 
Q 3503 2844 2894 2531 
Q 3713 2250 3553 1416 
Q 3272 -69 1759 -66 
Q 1097 -63 872 216 
z
M 1019 966 
Q 1259 422 1875 425 
Q 2775 425 2966 1406 
Q 3138 2288 1675 2219 
L 1778 2750 
Q 2909 2731 3106 3750 
Q 3241 4438 2509 4434 
Q 1691 4434 1503 3459 
L 1019 966 
z
" transform="scale(0.015625)"/>
       <path id="DejaVuSans-2c" d="M 750 794 
L 1409 794 
L 1409 256 
L 897 -744 
L 494 -744 
L 750 256 
L 750 794 
z
" transform="scale(0.015625)"/>
       <path id="DejaVuSans-Oblique-3b4" d="M 3472 4053 
Q 3197 4272 2450 4272 
Q 1659 4272 1588 3906 
Q 1531 3619 2328 3469 
Q 2953 3353 3253 3003 
Q 3616 2581 3447 1716 
Q 3284 888 2763 400 
Q 2238 -91 1488 -91 
Q 741 -91 406 400 
Q 72 888 241 1747 
Q 363 2384 891 2900 
Q 1097 3100 1353 3213 
Q 913 3459 1000 3900 
Q 1166 4750 2544 4750 
Q 3234 4750 3566 4531 
L 3472 4053 
z
M 1753 3056 
Q 1525 2966 1306 2738 
Q 969 2384 847 1747 
Q 722 1113 919 756 
Q 1119 397 1584 397 
Q 2044 397 2381 759 
Q 2722 1122 2838 1716 
Q 2956 2338 2731 2638 
Q 2491 2959 2103 2994 
Q 1906 3013 1753 3056 
z
" transform="scale(0.015625)"/>
      </defs>
      <use xlink:href="#DejaVuSans-Oblique-3b2" transform="translate(0 0.390625)"/>
      <use xlink:href="#DejaVuSans-2c" transform="translate(63.818359 0.390625)"/>
      <use xlink:href="#DejaVuSans-Oblique-3b4" transform="translate(147.558269 0.390625)"/>
     </g>
    </g>
   </g>
   <g id="line2d_13">
    <path d="M 83.269631 123.092756 
L 84.493656 123.033623 
L 85.098432 123.165633 
L 85.712979 123.097472 
L 88.765684 123.269828 
L 89.378888 123.167581 
L 92.431409 123.400105 
L 93.039971 123.29458 
L 99.756874 123.567346 
L 100.372704 123.43242 
L 101.593004 123.536031 
L 105.868391 123.656063 
L 113.200391 123.692939 
L 113.80877 123.84242 
L 115.02962 123.78861 
L 123.575568 124.018335 
L 124.800693 123.937843 
L 126.02252 123.997197 
L 127.256379 123.961137 
L 132.127685 124.074727 
L 133.308836 124.198653 
L 133.952639 124.051476 
L 134.571828 124.174176 
L 136.405149 124.098432 
L 137.017803 124.267257 
L 140.071607 124.349671 
L 140.686704 124.198269 
L 142.511413 124.341104 
L 143.735805 124.309016 
L 144.947921 124.443778 
L 145.565217 124.285369 
L 146.177688 124.418585 
L 146.776966 124.327553 
L 147.403057 124.431179 
L 148.010825 124.18509 
L 149.840848 124.379791 
L 150.458877 124.286927 
L 152.286456 124.433262 
L 152.895751 124.183953 
L 153.505596 124.351036 
L 154.12051 124.274599 
L 154.723453 124.358092 
L 155.335741 124.120974 
L 156.255424 124.250797 
L 156.542848 124.115258 
L 158.702132 124.164033 
L 159.309595 124.085213 
L 159.9206 124.072714 
L 160.842482 123.985938 
L 162.363948 123.714583 
L 162.972694 123.5189 
L 163.279662 123.448142 
L 164.194643 122.900327 
L 164.510773 122.864777 
L 165.414393 121.878366 
L 165.720262 121.40076 
L 166.337375 119.14426 
L 166.641961 119.033773 
L 166.942395 116.950262 
L 167.25034 113.537712 
L 167.555659 103.194951 
L 168.164405 51.005392 
L 168.482917 49.77506 
L 168.780235 34.677069 
L 169.079752 31.479082 
L 169.38953 38.660507 
L 169.696865 51.63604 
L 170.00762 51.401117 
L 170.614472 73.232249 
L 171.217293 87.313691 
L 171.523101 89.906772 
L 171.838314 90.062824 
L 172.439608 91.075312 
L 172.74566 92.339518 
L 173.362956 96.105373 
L 173.967793 97.886157 
L 174.275006 98.607967 
L 174.577699 98.969481 
L 174.887293 97.368451 
L 175.493962 88.44407 
L 175.802274 88.852055 
L 176.726355 73.23369 
L 177.027582 71.949021 
L 177.328443 72.6854 
L 177.94128 75.209029 
L 178.238355 77.024123 
L 178.54514 77.770208 
L 178.857361 77.375484 
L 179.152419 77.353993 
L 179.770692 75.535424 
L 180.070942 75.687228 
L 180.380537 77.541804 
L 180.688666 81.142705 
L 180.992275 80.896811 
L 181.290509 83.462372 
L 182.2083 88.916309 
L 182.5171 88.888629 
L 183.135007 91.396132 
L 183.424996 92.872036 
L 184.04162 94.548647 
L 184.350055 94.457035 
L 184.654824 94.238435 
L 184.961793 94.155095 
L 185.87885 91.226314 
L 186.182826 91.355014 
L 186.485702 90.450969 
L 187.100433 89.474102 
L 188.01633 89.486396 
L 188.31945 89.752823 
L 188.624708 89.55226 
L 188.929661 89.186481 
L 189.242065 88.341886 
L 189.530772 88.292609 
L 189.850261 87.243063 
L 190.45919 82.891265 
L 191.08357 77.354009 
L 191.38663 77.452485 
L 191.680223 75.875181 
L 191.985359 75.111368 
L 192.596303 73.299049 
L 192.903454 73.424924 
L 193.205781 73.299157 
L 193.821061 74.47165 
L 194.430173 77.502726 
L 194.729385 77.383752 
L 195.01064 79.114357 
L 195.344604 79.994489 
L 195.95396 82.256 
L 196.575165 83.956701 
L 196.868147 83.840316 
L 197.174199 84.446515 
L 198.396209 85.2758 
L 199.314 85.11054 
L 200.537598 83.915575 
L 201.145244 82.932291 
L 201.759608 81.665083 
L 202.066576 80.892212 
L 202.365361 80.828695 
L 203.591768 76.758785 
L 203.895622 75.180681 
L 204.175595 74.962199 
L 204.798082 72.04341 
L 205.728942 65.38738 
L 206.032918 65.253534 
L 206.64374 61.970965 
L 206.947716 60.560169 
L 207.258287 59.664159 
L 207.860498 58.980388 
L 208.168565 59.418907 
L 208.470709 59.640749 
L 209.390209 62.252722 
L 209.694185 61.930054 
L 210.614968 63.455731 
L 211.235806 63.650303 
L 211.832275 63.818608 
L 212.445845 63.538709 
L 212.747622 63.283069 
L 213.056118 63.73608 
L 213.661137 63.371709 
L 213.971831 63.51358 
L 214.582836 63.188065 
L 214.887911 63.446932 
L 215.19659 63.228309 
L 215.500749 63.316881 
L 216.410721 62.292658 
L 216.732043 62.494931 
L 217.025086 62.249167 
L 218.255769 60.471038 
L 218.551438 60.753263 
L 218.85804 60.428099 
L 219.161466 60.4021 
L 219.433621 60.128607 
L 219.774303 60.106053 
L 220.082615 60.385176 
L 220.386591 60.46673 
L 220.99271 60.94367 
L 221.59718 61.901921 
L 221.911294 62.109094 
L 223.134343 64.049429 
L 223.440028 64.187697 
L 224.351284 65.466242 
L 225.270356 66.293862 
L 225.576042 66.483226 
L 225.881545 66.831816 
L 227.100745 67.392241 
L 227.411623 67.528111 
L 228.314144 67.458851 
L 228.638824 67.31278 
L 228.946709 67.365735 
L 229.543178 67.011356 
L 229.856681 66.69865 
L 230.464144 65.775045 
L 230.768853 65.856405 
L 231.374056 64.866958 
L 231.98897 63.396125 
L 232.28983 63.461685 
L 233.821741 60.254203 
L 234.12651 60.245066 
L 234.737271 59.656191 
L 235.347726 59.534745 
L 235.963923 59.246341 
L 237.79535 59.751558 
L 239.011925 60.484425 
L 239.62293 60.858054 
L 240.845429 61.016827 
L 241.455884 61.187997 
L 242.682292 60.777656 
L 243.885857 59.902265 
L 244.51152 60.189779 
L 245.122159 59.601242 
L 245.724369 59.296898 
L 247.567584 57.918478 
L 248.193492 58.147717 
L 248.787701 58.06841 
L 250.006108 57.772506 
L 250.618579 57.778274 
L 251.231599 57.963475 
L 252.441639 58.014303 
L 253.059545 58.204133 
L 254.892316 58.367531 
L 255.50723 58.470762 
L 257.332367 58.226025 
L 258.564577 57.772629 
L 259.169047 57.409775 
L 259.771074 57.575305 
L 260.394721 57.426625 
L 261.556877 56.960111 
L 263.450785 56.467268 
L 264.053912 56.581318 
L 266.496161 56.637007 
L 268.331558 57.199191 
L 268.943296 57.36454 
L 273.215507 59.658014 
L 273.827428 60.107097 
L 274.4388 60.706806 
L 275.052187 60.847169 
L 278.714553 63.788782 
L 279.313587 63.954355 
L 282.987924 66.555115 
L 283.59612 67.037178 
L 284.204498 67.214649 
L 284.827169 67.592773 
L 287.264776 69.590313 
L 287.878225 69.714911 
L 288.481901 70.283586 
L 289.095165 70.599592 
L 290.928853 71.930331 
L 292.148786 72.310229 
L 293.373178 73.10119 
L 293.978198 73.433212 
L 295.204056 73.794 
L 295.813534 74.172016 
L 296.422829 74.41794 
L 298.855245 75.940855 
L 299.476633 76.633591 
L 300.096006 76.81673 
L 303.752631 80.116107 
L 304.339022 80.772068 
L 304.97513 80.955253 
L 308.030827 83.847353 
L 308.64458 83.984886 
L 309.857796 84.940197 
L 311.083715 85.871832 
L 311.698201 86.003635 
L 312.916425 86.752239 
L 314.748463 87.744656 
L 315.360018 87.870244 
L 317.189063 88.542235 
L 319.638763 89.239502 
L 320.852895 89.506053 
L 323.911951 90.110264 
L 330.627755 91.114295 
L 332.455273 91.282618 
L 333.074096 91.420759 
L 334.281326 91.527904 
L 336.734997 91.818782 
L 341.00849 92.24384 
L 341.622671 92.24474 
L 342.847796 92.406893 
L 345.288579 92.613578 
L 345.898058 92.547527 
L 346.508269 92.675117 
L 347.122083 92.664389 
L 348.336398 92.801741 
L 348.950945 92.740831 
L 349.569158 92.953238 
L 351.378842 93.109771 
L 360.551797 94.442554 
L 361.164818 94.566807 
L 361.767822 94.5735 
L 362.998749 94.832057 
L 364.196268 95.076631 
L 364.826085 95.044315 
L 365.437273 95.256112 
L 376.437197 96.659942 
L 378.267769 96.76809 
L 378.882805 96.871086 
L 380.098281 96.916248 
L 386.833079 97.219838 
L 408.195537 98.43579 
L 410.027392 98.611743 
L 411.250868 98.66514 
L 411.860163 98.772569 
L 412.472634 98.725188 
L 413.677848 98.872057 
L 414.910608 98.949673 
L 417.967588 99.19218 
L 419.188621 99.340422 
L 419.797733 99.25484 
L 420.412463 99.413205 
L 422.854713 99.510385 
L 424.09419 99.667519 
L 425.908517 99.714749 
L 426.518544 99.861712 
L 427.126923 99.830769 
L 428.960061 100.003211 
L 441.787564 100.84358 
L 443.008048 100.957782 
L 444.836543 101.044929 
L 445.447549 101.17405 
L 446.660886 101.239182 
L 448.505994 101.374597 
L 448.505994 101.374597 
" clip-path="url(#p632c142b69)" style="fill: none; stroke: #888888; stroke-width: 1.1; stroke-linecap: square"/>
   </g>
   <g id="line2d_14">
    <path d="M 83.269631 108.281932 
L 87.520953 109.067469 
L 89.378888 109.545881 
L 90.599371 109.756488 
L 97.286835 111.384122 
L 100.372704 112.306537 
L 101.593004 112.492048 
L 104.649007 113.381011 
L 118.696628 117.877816 
L 125.418417 120.541274 
L 126.632731 121.077908 
L 128.466235 121.826387 
L 132.127685 123.445155 
L 137.629907 126.405183 
L 140.686704 128.393231 
L 141.901202 129.11092 
L 146.776966 132.859215 
L 148.010825 133.966194 
L 148.622563 134.390117 
L 151.061698 136.783413 
L 153.505596 139.597391 
L 155.947112 142.908006 
L 159.309595 148.909155 
L 160.506197 151.752791 
L 161.755386 155.347306 
L 162.972694 159.759671 
L 164.194643 165.586639 
L 164.806931 169.589777 
L 165.414393 174.444277 
L 166.337375 184.817224 
L 166.641961 189.954053 
L 166.942395 197.217544 
L 167.865621 227.660732 
L 168.780235 186.490904 
L 169.38953 146.545876 
L 170.304327 124.060572 
L 170.614472 122.963062 
L 170.918081 124.510647 
L 171.838314 135.8027 
L 172.138381 137.036195 
L 172.439608 137.615624 
L 172.74566 137.90305 
L 173.051529 138.775205 
L 173.657832 142.670324 
L 174.275006 147.592825 
L 175.190902 158.798446 
L 175.493962 158.605757 
L 175.802274 159.536267 
L 176.107532 161.779994 
L 176.409859 159.901643 
L 177.632235 143.456285 
L 177.94128 141.427089 
L 178.238355 140.516716 
L 178.54514 140.580865 
L 178.857361 140.273084 
L 179.152419 139.746891 
L 179.441675 138.870591 
L 179.770692 136.636023 
L 180.380537 130.856298 
L 180.992275 129.928227 
L 181.290509 128.83451 
L 181.607372 128.763253 
L 181.907256 129.045823 
L 182.2083 130.264494 
L 182.5171 130.974476 
L 182.825229 130.960121 
L 183.135007 131.385048 
L 183.424996 132.372866 
L 185.572615 141.967308 
L 185.87885 142.060988 
L 186.182826 142.38861 
L 186.485702 142.909067 
L 186.792731 142.964481 
L 187.408378 142.884899 
L 188.01633 143.429484 
L 188.31945 144.080919 
L 189.530772 147.781086 
L 190.152954 150.793549 
L 190.45919 151.468277 
L 190.763348 151.072668 
L 191.38663 147.602191 
L 191.680223 146.782953 
L 192.289151 144.023213 
L 193.515375 136.863841 
L 194.123754 133.949004 
L 194.430173 133.766185 
L 195.01064 132.555808 
L 195.659818 132.530033 
L 195.95396 132.865442 
L 196.259218 133.473636 
L 196.868147 135.034053 
L 197.174199 135.470066 
L 199.007153 139.647714 
L 200.837909 143.912268 
L 201.759608 145.868694 
L 202.066576 146.165693 
L 202.677215 147.615738 
L 203.591768 149.626139 
L 203.895622 149.542839 
L 204.175595 149.682606 
L 204.798082 151.053283 
L 205.114761 151.304038 
L 205.423073 150.858801 
L 206.032918 148.21388 
L 206.333229 147.655799 
L 206.947716 144.705173 
L 208.168565 137.183009 
L 208.78067 134.329357 
L 209.08379 133.491596 
L 209.390209 133.284862 
L 209.694185 132.917872 
L 209.997428 132.147876 
L 210.304213 131.801513 
L 212.142603 131.109614 
L 212.445845 130.892603 
L 213.056118 130.125014 
L 213.361376 130.112865 
L 213.971831 129.575707 
L 214.27825 129.41082 
L 214.582836 129.022703 
L 215.19659 128.745365 
L 216.111021 128.466635 
L 216.732043 127.719435 
L 217.025086 127.727509 
L 217.635663 127.210456 
L 217.943242 126.695114 
L 218.551438 125.24643 
L 219.161466 124.24158 
L 219.774303 122.736433 
L 220.99271 120.141684 
L 221.59718 119.216726 
L 222.519856 118.103281 
L 222.827741 117.861521 
L 223.134343 117.863056 
L 224.351284 117.504579 
L 224.980917 117.732679 
L 225.576042 117.899728 
L 226.192239 118.217019 
L 227.411623 119.138967 
L 230.154916 121.666215 
L 230.464144 121.607311 
L 230.768853 121.751848 
L 231.374056 122.341333 
L 231.686826 122.40395 
L 231.98897 122.049368 
L 232.28983 121.910875 
L 232.604067 122.038439 
L 232.90566 121.865475 
L 233.517948 121.114841 
L 234.12651 119.745791 
L 234.737271 118.799734 
L 236.572485 115.723837 
L 237.79535 114.202494 
L 238.405073 113.600314 
L 239.011925 113.206796 
L 240.845429 112.693845 
L 242.682292 112.707682 
L 243.287495 112.517911 
L 243.885857 111.967349 
L 244.51152 111.739494 
L 245.122159 111.664537 
L 246.344658 110.906709 
L 246.955846 110.324779 
L 248.193492 108.70783 
L 249.391988 107.748341 
L 251.231599 105.848402 
L 254.892316 103.295817 
L 257.947036 101.937805 
L 258.564577 101.562827 
L 259.771074 100.400147 
L 260.394721 100.067967 
L 261.556877 99.0541 
L 262.832695 97.737679 
L 264.668276 95.578044 
L 270.186316 89.075377 
L 271.386645 87.879134 
L 273.215507 85.954327 
L 273.827428 85.360852 
L 275.052187 84.528457 
L 276.266685 83.465729 
L 277.494436 82.59463 
L 278.104525 82.246471 
L 279.313587 81.771306 
L 282.372277 79.92014 
L 282.987924 79.65765 
L 284.204498 79.293761 
L 285.430906 78.51292 
L 286.654932 78.176699 
L 287.264776 78.1345 
L 289.710385 77.288142 
L 290.310213 77.182748 
L 291.54395 77.134775 
L 292.76144 76.671507 
L 294.593234 76.368387 
L 297.642396 74.982015 
L 298.258227 74.855852 
L 299.476633 74.409062 
L 300.096006 74.254606 
L 301.309588 73.747091 
L 303.143153 73.270324 
L 303.752631 73.203814 
L 304.339022 73.382452 
L 304.97513 73.432791 
L 305.586135 73.294008 
L 306.800999 73.318651 
L 307.417806 73.506186 
L 308.030827 73.850061 
L 308.64458 74.004132 
L 309.252959 74.038906 
L 310.475886 74.394261 
L 311.698201 74.939889 
L 312.916425 75.275059 
L 314.134892 75.757586 
L 315.360018 76.334339 
L 316.579585 76.755855 
L 319.638763 77.878084 
L 326.352735 79.579566 
L 334.903875 80.969277 
L 339.788801 81.593197 
L 345.898058 82.114099 
L 355.055561 82.254405 
L 356.283679 82.244003 
L 359.338582 82.29487 
L 361.767822 82.424449 
L 363.602975 82.513648 
L 364.826085 82.615585 
L 366.054569 82.678264 
L 370.328123 83.12996 
L 372.154542 83.300521 
L 374.602044 83.605442 
L 383.159719 84.467724 
L 384.971602 84.616513 
L 394.145351 85.052342 
L 404.528529 85.248134 
L 407.5827 85.338465 
L 411.860163 85.451227 
L 418.578532 85.63786 
L 419.797733 85.706749 
L 421.630137 85.761362 
L 422.854713 85.808163 
L 426.518544 85.937121 
L 431.400661 86.168584 
L 437.510529 86.335669 
L 448.505994 86.874736 
L 448.505994 86.874736 
" clip-path="url(#p632c142b69)" style="fill: none; stroke: #9e1b32; stroke-width: 1.4; stroke-linecap: square"/>
   </g>
   <g id="line2d_15">
    <path d="M 83.269631 106.822605 
L 93.657084 109.100476 
L 102.810678 111.34088 
L 110.142862 113.340071 
L 116.865384 115.382341 
L 122.966823 117.459978 
L 128.466235 119.569696 
L 133.308836 121.670663 
L 137.629907 123.797229 
L 141.290197 125.832227 
L 144.346444 127.73296 
L 146.177688 129.090969 
L 149.840848 132.054277 
L 151.676917 133.752111 
L 152.895751 135.092824 
L 154.12051 136.443816 
L 157.47664 141.004072 
L 158.394797 142.543897 
L 160.222316 146.184714 
L 161.142182 148.439299 
L 162.058812 151.080041 
L 163.279662 155.393167 
L 164.194643 159.501607 
L 164.806931 163.169816 
L 165.414393 167.618343 
L 166.337375 177.124258 
L 166.641961 181.831868 
L 166.942395 188.488546 
L 167.865621 216.388721 
L 168.780235 178.65676 
L 169.38953 142.047512 
L 170.304327 121.4398 
L 170.614472 120.433877 
L 170.918081 121.852157 
L 171.838314 132.201033 
L 172.138381 133.331494 
L 172.439608 133.862522 
L 172.74566 134.125942 
L 173.051529 134.925268 
L 173.657832 138.495129 
L 174.275006 143.006608 
L 175.190902 153.276578 
L 175.493962 153.10006 
L 175.802274 153.952946 
L 176.107532 156.009384 
L 176.409859 154.288007 
L 177.632235 139.216582 
L 177.94128 137.357 
L 178.238355 136.522805 
L 178.54514 136.581755 
L 178.857361 136.299848 
L 179.152419 135.817769 
L 179.441675 135.014825 
L 179.770692 132.967079 
L 180.380537 127.670446 
L 180.992275 126.820309 
L 181.290509 125.818153 
L 181.607372 125.753085 
L 181.907256 126.012289 
L 182.2083 127.129423 
L 182.5171 127.780363 
L 182.825229 127.767466 
L 183.135007 128.157172 
L 183.424996 129.062748 
L 185.572615 137.857978 
L 185.87885 137.944154 
L 186.182826 138.244738 
L 186.485702 138.722056 
L 187.100433 138.715011 
L 187.408378 138.700938 
L 188.01633 139.200751 
L 188.31945 139.798142 
L 189.530772 143.190786 
L 190.152954 145.952463 
L 190.45919 146.571244 
L 190.763348 146.209079 
L 191.38663 143.029285 
L 191.680223 142.278871 
L 192.289151 139.750466 
L 193.515375 133.190791 
L 194.123754 130.520299 
L 194.430173 130.353215 
L 195.01064 129.244819 
L 195.659818 129.222218 
L 195.95396 129.530085 
L 196.259218 130.087978 
L 196.868147 131.519071 
L 197.174199 131.919177 
L 199.007153 135.75105 
L 200.837909 139.662717 
L 201.759608 141.457451 
L 202.066576 141.73022 
L 202.677215 143.060318 
L 203.591768 144.904576 
L 203.895622 144.828823 
L 204.175595 144.957466 
L 204.798082 146.214899 
L 205.114761 146.445343 
L 205.423073 146.037908 
L 206.032918 143.615111 
L 206.333229 143.104251 
L 206.947716 140.401311 
L 208.168565 133.509914 
L 208.78067 130.895887 
L 209.08379 130.128741 
L 209.390209 129.939932 
L 209.694185 129.604249 
L 209.997428 128.899218 
L 210.304213 128.582452 
L 212.142603 127.952423 
L 212.445845 127.754221 
L 213.056118 127.052126 
L 213.361376 127.04169 
L 213.971831 126.550801 
L 214.27825 126.400396 
L 214.582836 126.045402 
L 215.19659 125.792665 
L 216.111021 125.539381 
L 216.732043 124.856071 
L 217.025086 124.864177 
L 217.635663 124.391786 
L 217.943242 123.920232 
L 218.551438 122.594027 
L 219.161466 121.674604 
L 219.774303 120.296685 
L 220.99271 117.921703 
L 221.59718 117.075531 
L 222.519856 116.057443 
L 222.827741 115.83667 
L 223.440028 115.733111 
L 224.054759 115.514841 
L 224.65306 115.588749 
L 226.489007 116.357163 
L 230.154916 119.343336 
L 230.464144 119.290216 
L 230.768853 119.423536 
L 231.374056 119.965494 
L 231.686826 120.023766 
L 231.98897 119.699654 
L 232.28983 119.573583 
L 232.604067 119.691389 
L 233.214278 119.247731 
L 233.517948 118.847545 
L 234.12651 117.594589 
L 234.737271 116.729314 
L 236.572485 113.915683 
L 237.79535 112.525029 
L 238.405073 111.974964 
L 239.011925 111.616137 
L 240.845429 111.151596 
L 242.682292 111.169939 
L 243.287495 110.9979 
L 243.885857 110.495189 
L 244.51152 110.288328 
L 245.122159 110.221557 
L 246.344658 109.530903 
L 246.955846 108.999527 
L 248.193492 107.521602 
L 249.391988 106.646136 
L 251.231599 104.910909 
L 254.892316 102.583748 
L 257.947036 101.349601 
L 258.564577 101.008078 
L 259.771074 99.946701 
L 260.394721 99.644448 
L 261.556877 98.719349 
L 262.832695 97.5174 
L 264.668276 95.544709 
L 270.186316 89.605359 
L 271.386645 88.513515 
L 273.215507 86.756373 
L 273.827428 86.214792 
L 275.052187 85.456605 
L 276.266685 84.487316 
L 277.494436 83.693739 
L 278.714553 83.183552 
L 279.928134 82.591643 
L 282.372277 81.261919 
L 283.59612 80.900143 
L 284.204498 80.695253 
L 285.430906 79.984624 
L 286.654932 79.681511 
L 287.264776 79.645355 
L 289.710385 78.879877 
L 290.928853 78.792573 
L 291.54395 78.747064 
L 292.76144 78.327678 
L 294.593234 78.057758 
L 297.642396 76.800496 
L 298.258227 76.687593 
L 299.476633 76.283536 
L 300.096006 76.14475 
L 301.309588 75.685082 
L 303.143153 75.256466 
L 303.752631 75.198303 
L 304.339022 75.364719 
L 304.97513 75.413791 
L 306.196163 75.275186 
L 306.800999 75.317685 
L 307.417806 75.492453 
L 308.030827 75.810499 
L 311.083715 76.627179 
L 316.579585 78.51522 
L 320.238408 79.709216 
L 327.576883 81.360539 
L 334.281326 82.390859 
L 341.00849 83.222537 
L 344.678674 83.490563 
L 345.898058 83.592289 
L 355.055561 83.783422 
L 356.283679 83.782807 
L 359.338582 83.852232 
L 361.767822 83.9898 
L 363.602975 84.08619 
L 364.826085 84.189589 
L 366.054569 84.257235 
L 370.939495 84.732989 
L 373.379484 85.020605 
L 376.437197 85.404628 
L 390.479443 86.580882 
L 402.083287 87.185478 
L 419.797733 87.864434 
L 443.617343 88.547618 
L 448.505994 88.670002 
L 448.505994 88.670002 
" clip-path="url(#p632c142b69)" style="fill: none; stroke-dasharray: 4.4,2.2; stroke-dashoffset: 0; stroke: #1f4e8c; stroke-width: 1.1"/>
   </g>
   <g id="patch_3">
    <path d="M 65.007812 237.469815 
L 65.007812 21.67 
" style="fill: none; stroke: #000000; stroke-width: 0.8; stroke-linejoin: miter; stroke-linecap: square"/>
   </g>
   <g id="patch_4">
    <path d="M 65.007812 237.469815 
L 466.767812 237.469815 
" style="fill: none; stroke: #000000; stroke-width: 0.8; stroke-linejoin: miter; stroke-linecap: square"/>
   </g>
   <g id="text_7">
    <!-- PC61BM, C K-edge ($\theta=55^\circ$): in-browser KK vs kkcalc2 reference -->
    <g transform="translate(87.137812 15.67) scale(0.11 -0.11)">
     <defs>
      <path id="DejaVuSans-50" d="M 1259 4147 
L 1259 2394 
L 2053 2394 
Q 2494 2394 2734 2622 
Q 2975 2850 2975 3272 
Q 2975 3691 2734 3919 
Q 2494 4147 2053 4147 
L 1259 4147 
z
M 628 4666 
L 2053 4666 
Q 2838 4666 3239 4311 
Q 3641 3956 3641 3272 
Q 3641 2581 3239 2228 
Q 2838 1875 2053 1875 
L 1259 1875 
L 1259 0 
L 628 0 
L 628 4666 
z
" transform="scale(0.015625)"/>
      <path id="DejaVuSans-43" d="M 4122 4306 
L 4122 3641 
Q 3803 3938 3442 4084 
Q 3081 4231 2675 4231 
Q 1875 4231 1450 3742 
Q 1025 3253 1025 2328 
Q 1025 1406 1450 917 
Q 1875 428 2675 428 
Q 3081 428 3442 575 
Q 3803 722 4122 1019 
L 4122 359 
Q 3791 134 3420 21 
Q 3050 -91 2638 -91 
Q 1578 -91 968 557 
Q 359 1206 359 2328 
Q 359 3453 968 4101 
Q 1578 4750 2638 4750 
Q 3056 4750 3426 4639 
Q 3797 4528 4122 4306 
z
" transform="scale(0.015625)"/>
      <path id="DejaVuSans-36" d="M 2113 2584 
Q 1688 2584 1439 2293 
Q 1191 2003 1191 1497 
Q 1191 994 1439 701 
Q 1688 409 2113 409 
Q 2538 409 2786 701 
Q 3034 994 3034 1497 
Q 3034 2003 2786 2293 
Q 2538 2584 2113 2584 
z
M 3366 4563 
L 3366 3988 
Q 3128 4100 2886 4159 
Q 2644 4219 2406 4219 
Q 1781 4219 1451 3797 
Q 1122 3375 1075 2522 
Q 1259 2794 1537 2939 
Q 1816 3084 2150 3084 
Q 2853 3084 3261 2657 
Q 3669 2231 3669 1497 
Q 3669 778 3244 343 
Q 2819 -91 2113 -91 
Q 1303 -91 875 529 
Q 447 1150 447 2328 
Q 447 3434 972 4092 
Q 1497 4750 2381 4750 
Q 2619 4750 2861 4703 
Q 3103 4656 3366 4563 
z
" transform="scale(0.015625)"/>
      <path id="DejaVuSans-31" d="M 794 531 
L 1825 531 
L 1825 4091 
L 703 3866 
L 703 4441 
L 1819 4666 
L 2450 4666 
L 2450 531 
L 3481 531 
L 3481 0 
L 794 0 
L 794 531 
z
" transform="scale(0.015625)"/>
      <path id="DejaVuSans-42" d="M 1259 2228 
L 1259 519 
L 2272 519 
Q 2781 519 3026 730 
Q 3272 941 3272 1375 
Q 3272 1813 3026 2020 
Q 2781 2228 2272 2228 
L 1259 2228 
z
M 1259 4147 
L 1259 2741 
L 2194 2741 
Q 2656 2741 2882 2914 
Q 3109 3088 3109 3444 
Q 3109 3797 2882 3972 
Q 2656 4147 2194 4147 
L 1259 4147 
z
M 628 4666 
L 2241 4666 
Q 2963 4666 3353 4366 
Q 3744 4066 3744 3513 
Q 3744 3084 3544 2831 
Q 3344 2578 2956 2516 
Q 3422 2416 3680 2098 
Q 3938 1781 3938 1306 
Q 3938 681 3513 340 
Q 3088 0 2303 0 
L 628 0 
L 628 4666 
z
" transform="scale(0.015625)"/>
      <path id="DejaVuSans-4d" d="M 628 4666 
L 1569 4666 
L 2759 1491 
L 3956 4666 
L 4897 4666 
L 4897 0 
L 4281 0 
L 4281 4097 
L 3078 897 
L 2444 897 
L 1241 4097 
L 1241 0 
L 628 0 
L 628 4666 
z
" transform="scale(0.015625)"/>
      <path id="DejaVuSans-20" transform="scale(0.015625)"/>
      <path id="DejaVuSans-4b" d="M 628 4666 
L 1259 4666 
L 1259 2694 
L 3353 4666 
L 4166 4666 
L 1850 2491 
L 4331 0 
L 3500 0 
L 1259 2247 
L 1259 0 
L 628 0 
L 628 4666 
z
" transform="scale(0.015625)"/>
      <path id="DejaVuSans-2d" d="M 313 2009 
L 1997 2009 
L 1997 1497 
L 313 1497 
L 313 2009 
z
" transform="scale(0.015625)"/>
      <path id="DejaVuSans-65" d="M 3597 1894 
L 3597 1613 
L 953 1613 
Q 991 1019 1311 708 
Q 1631 397 2203 397 
Q 2534 397 2845 478 
Q 3156 559 3463 722 
L 3463 178 
Q 3153 47 2828 -22 
Q 2503 -91 2169 -91 
Q 1331 -91 842 396 
Q 353 884 353 1716 
Q 353 2575 817 3079 
Q 1281 3584 2069 3584 
Q 2775 3584 3186 3129 
Q 3597 2675 3597 1894 
z
M 3022 2063 
Q 3016 2534 2758 2815 
Q 2500 3097 2075 3097 
Q 1594 3097 1305 2825 
Q 1016 2553 972 2059 
L 3022 2063 
z
" transform="scale(0.015625)"/>
      <path id="DejaVuSans-64" d="M 2906 2969 
L 2906 4863 
L 3481 4863 
L 3481 0 
L 2906 0 
L 2906 525 
Q 2725 213 2448 61 
Q 2172 -91 1784 -91 
Q 1150 -91 751 415 
Q 353 922 353 1747 
Q 353 2572 751 3078 
Q 1150 3584 1784 3584 
Q 2172 3584 2448 3432 
Q 2725 3281 2906 2969 
z
M 947 1747 
Q 947 1113 1208 752 
Q 1469 391 1925 391 
Q 2381 391 2643 752 
Q 2906 1113 2906 1747 
Q 2906 2381 2643 2742 
Q 2381 3103 1925 3103 
Q 1469 3103 1208 2742 
Q 947 2381 947 1747 
z
" transform="scale(0.015625)"/>
      <path id="DejaVuSans-67" d="M 2906 1791 
Q 2906 2416 2648 2759 
Q 2391 3103 1925 3103 
Q 1463 3103 1205 2759 
Q 947 2416 947 1791 
Q 947 1169 1205 825 
Q 1463 481 1925 481 
Q 2391 481 2648 825 
Q 2906 1169 2906 1791 
z
M 3481 434 
Q 3481 -459 3084 -895 
Q 2688 -1331 1869 -1331 
Q 1566 -1331 1297 -1286 
Q 1028 -1241 775 -1147 
L 775 -588 
Q 1028 -725 1275 -790 
Q 1522 -856 1778 -856 
Q 2344 -856 2625 -561 
Q 2906 -266 2906 331 
L 2906 616 
Q 2728 306 2450 153 
Q 2172 0 1784 0 
Q 1141 0 747 490 
Q 353 981 353 1791 
Q 353 2603 747 3093 
Q 1141 3584 1784 3584 
Q 2172 3584 2450 3431 
Q 2728 3278 2906 2969 
L 2906 3500 
L 3481 3500 
L 3481 434 
z
" transform="scale(0.015625)"/>
      <path id="DejaVuSans-28" d="M 1984 4856 
Q 1566 4138 1362 3434 
Q 1159 2731 1159 2009 
Q 1159 1288 1364 580 
Q 1569 -128 1984 -844 
L 1484 -844 
Q 1016 -109 783 600 
Q 550 1309 550 2009 
Q 550 2706 781 3412 
Q 1013 4119 1484 4856 
L 1984 4856 
z
" transform="scale(0.015625)"/>
      <path id="DejaVuSans-Oblique-3b8" d="M 2913 2219 
L 925 2219 
Q 791 1284 928 888 
Q 1100 400 1566 400 
Q 2034 400 2391 891 
Q 2703 1322 2913 2219 
z
M 3009 2750 
Q 3094 3638 2984 3950 
Q 2813 4444 2353 4444 
Q 1875 4444 1525 3956 
Q 1250 3563 1034 2750 
L 3009 2750 
z
M 2444 4913 
Q 3194 4913 3494 4250 
Q 3794 3591 3566 2422 
Q 3341 1256 2781 594 
Q 2225 -72 1475 -72 
Q 722 -72 425 594 
Q 128 1256 353 2422 
Q 581 3591 1134 4250 
Q 1691 4913 2444 4913 
z
" transform="scale(0.015625)"/>
      <path id="DejaVuSans-3d" d="M 678 2906 
L 4684 2906 
L 4684 2381 
L 678 2381 
L 678 2906 
z
M 678 1631 
L 4684 1631 
L 4684 1100 
L 678 1100 
L 678 1631 
z
" transform="scale(0.015625)"/>
      <path id="DejaVuSans-35" d="M 691 4666 
L 3169 4666 
L 3169 4134 
L 1269 4134 
L 1269 2991 
Q 1406 3038 1543 3061 
Q 1681 3084 1819 3084 
Q 2600 3084 3056 2656 
Q 3513 2228 3513 1497 
Q 3513 744 3044 326 
Q 2575 -91 1722 -91 
Q 1428 -91 1123 -41 
Q 819 9 494 109 
L 494 744 
Q 775 591 1075 516 
Q 1375 441 1709 441 
Q 2250 441 2565 725 
Q 2881 1009 2881 1497 
Q 2881 1984 2565 2268 
Q 2250 2553 1709 2553 
Q 1456 2553 1204 2497 
Q 953 2441 691 2322 
L 691 4666 
z
" transform="scale(0.015625)"/>
      <path id="DejaVuSans-2218" d="M 2000 2619 
Q 1750 2619 1578 2445 
Q 1406 2272 1406 2022 
Q 1406 1775 1578 1605 
Q 1750 1435 2000 1435 
Q 2250 1435 2422 1605 
Q 2594 1775 2594 2022 
Q 2594 2269 2420 2444 
Q 2247 2619 2000 2619 
z
M 2000 3022 
Q 2200 3022 2384 2945 
Q 2569 2869 2703 2725 
Q 2847 2585 2919 2406 
Q 2991 2228 2991 2022 
Q 2991 1610 2702 1324 
Q 2413 1038 1994 1038 
Q 1572 1038 1290 1319 
Q 1009 1600 1009 2022 
Q 1009 2441 1296 2731 
Q 1584 3022 2000 3022 
z
" transform="scale(0.015625)"/>
      <path id="DejaVuSans-29" d="M 513 4856 
L 1013 4856 
Q 1481 4119 1714 3412 
Q 1947 2706 1947 2009 
Q 1947 1309 1714 600 
Q 1481 -109 1013 -844 
L 513 -844 
Q 928 -128 1133 580 
Q 1338 1288 1338 2009 
Q 1338 2731 1133 3434 
Q 928 4138 513 4856 
z
" transform="scale(0.015625)"/>
      <path id="DejaVuSans-3a" d="M 750 794 
L 1409 794 
L 1409 0 
L 750 0 
L 750 794 
z
M 750 3309 
L 1409 3309 
L 1409 2516 
L 750 2516 
L 750 3309 
z
" transform="scale(0.015625)"/>
      <path id="DejaVuSans-69" d="M 603 3500 
L 1178 3500 
L 1178 0 
L 603 0 
L 603 3500 
z
M 603 4863 
L 1178 4863 
L 1178 4134 
L 603 4134 
L 603 4863 
z
" transform="scale(0.015625)"/>
      <path id="DejaVuSans-6e" d="M 3513 2113 
L 3513 0 
L 2938 0 
L 2938 2094 
Q 2938 2591 2744 2837 
Q 2550 3084 2163 3084 
Q 1697 3084 1428 2787 
Q 1159 2491 1159 1978 
L 1159 0 
L 581 0 
L 581 3500 
L 1159 3500 
L 1159 2956 
Q 1366 3272 1645 3428 
Q 1925 3584 2291 3584 
Q 2894 3584 3203 3211 
Q 3513 2838 3513 2113 
z
" transform="scale(0.015625)"/>
      <path id="DejaVuSans-62" d="M 3116 1747 
Q 3116 2381 2855 2742 
Q 2594 3103 2138 3103 
Q 1681 3103 1420 2742 
Q 1159 2381 1159 1747 
Q 1159 1113 1420 752 
Q 1681 391 2138 391 
Q 2594 391 2855 752 
Q 3116 1113 3116 1747 
z
M 1159 2969 
Q 1341 3281 1617 3432 
Q 1894 3584 2278 3584 
Q 2916 3584 3314 3078 
Q 3713 2572 3713 1747 
Q 3713 922 3314 415 
Q 2916 -91 2278 -91 
Q 1894 -91 1617 61 
Q 1341 213 1159 525 
L 1159 0 
L 581 0 
L 581 4863 
L 1159 4863 
L 1159 2969 
z
" transform="scale(0.015625)"/>
      <path id="DejaVuSans-72" d="M 2631 2963 
Q 2534 3019 2420 3045 
Q 2306 3072 2169 3072 
Q 1681 3072 1420 2755 
Q 1159 2438 1159 1844 
L 1159 0 
L 581 0 
L 581 3500 
L 1159 3500 
L 1159 2956 
Q 1341 3275 1631 3429 
Q 1922 3584 2338 3584 
Q 2397 3584 2469 3576 
Q 2541 3569 2628 3553 
L 2631 2963 
z
" transform="scale(0.015625)"/>
      <path id="DejaVuSans-6f" d="M 1959 3097 
Q 1497 3097 1228 2736 
Q 959 2375 959 1747 
Q 959 1119 1226 758 
Q 1494 397 1959 397 
Q 2419 397 2687 759 
Q 2956 1122 2956 1747 
Q 2956 2369 2687 2733 
Q 2419 3097 1959 3097 
z
M 1959 3584 
Q 2709 3584 3137 3096 
Q 3566 2609 3566 1747 
Q 3566 888 3137 398 
Q 2709 -91 1959 -91 
Q 1206 -91 779 398 
Q 353 888 353 1747 
Q 353 2609 779 3096 
Q 1206 3584 1959 3584 
z
" transform="scale(0.015625)"/>
      <path id="DejaVuSans-77" d="M 269 3500 
L 844 3500 
L 1563 769 
L 2278 3500 
L 2956 3500 
L 3675 769 
L 4391 3500 
L 4966 3500 
L 4050 0 
L 3372 0 
L 2619 2869 
L 1863 0 
L 1184 0 
L 269 3500 
z
" transform="scale(0.015625)"/>
      <path id="DejaVuSans-73" d="M 2834 3397 
L 2834 2853 
Q 2591 2978 2328 3040 
Q 2066 3103 1784 3103 
Q 1356 3103 1142 2972 
Q 928 2841 928 2578 
Q 928 2378 1081 2264 
Q 1234 2150 1697 2047 
L 1894 2003 
Q 2506 1872 2764 1633 
Q 3022 1394 3022 966 
Q 3022 478 2636 193 
Q 2250 -91 1575 -91 
Q 1294 -91 989 -36 
Q 684 19 347 128 
L 347 722 
Q 666 556 975 473 
Q 1284 391 1588 391 
Q 1994 391 2212 530 
Q 2431 669 2431 922 
Q 2431 1156 2273 1281 
Q 2116 1406 1581 1522 
L 1381 1569 
Q 847 1681 609 1914 
Q 372 2147 372 2553 
Q 372 3047 722 3315 
Q 1072 3584 1716 3584 
Q 2034 3584 2315 3537 
Q 2597 3491 2834 3397 
z
" transform="scale(0.015625)"/>
      <path id="DejaVuSans-76" d="M 191 3500 
L 800 3500 
L 1894 563 
L 2988 3500 
L 3597 3500 
L 2284 0 
L 1503 0 
L 191 3500 
z
" transform="scale(0.015625)"/>
      <path id="DejaVuSans-6b" d="M 581 4863 
L 1159 4863 
L 1159 1991 
L 2875 3500 
L 3609 3500 
L 1753 1863 
L 3688 0 
L 2938 0 
L 1159 1709 
L 1159 0 
L 581 0 
L 581 4863 
z
" transform="scale(0.015625)"/>
      <path id="DejaVuSans-63" d="M 3122 3366 
L 3122 2828 
Q 2878 2963 2633 3030 
Q 2388 3097 2138 3097 
Q 1578 3097 1268 2742 
Q 959 2388 959 1747 
Q 959 1106 1268 751 
Q 1578 397 2138 397 
Q 2388 397 2633 464 
Q 2878 531 3122 666 
L 3122 134 
Q 2881 22 2623 -34 
Q 2366 -91 2075 -91 
Q 1284 -91 818 406 
Q 353 903 353 1747 
Q 353 2603 823 3093 
Q 1294 3584 2113 3584 
Q 2378 3584 2631 3529 
Q 2884 3475 3122 3366 
z
" transform="scale(0.015625)"/>
      <path id="DejaVuSans-61" d="M 2194 1759 
Q 1497 1759 1228 1600 
Q 959 1441 959 1056 
Q 959 750 1161 570 
Q 1363 391 1709 391 
Q 2188 391 2477 730 
Q 2766 1069 2766 1631 
L 2766 1759 
L 2194 1759 
z
M 3341 1997 
L 3341 0 
L 2766 0 
L 2766 531 
Q 2569 213 2275 61 
Q 1981 -91 1556 -91 
Q 1019 -91 701 211 
Q 384 513 384 1019 
Q 384 1609 779 1909 
Q 1175 2209 1959 2209 
L 2766 2209 
L 2766 2266 
Q 2766 2663 2505 2880 
Q 2244 3097 1772 3097 
Q 1472 3097 1187 3025 
Q 903 2953 641 2809 
L 641 3341 
Q 956 3463 1253 3523 
Q 1550 3584 1831 3584 
Q 2591 3584 2966 3190 
Q 3341 2797 3341 1997 
z
" transform="scale(0.015625)"/>
      <path id="DejaVuSans-6c" d="M 603 4863 
L 1178 4863 
L 1178 0 
L 603 0 
L 603 4863 
z
" transform="scale(0.015625)"/>
      <path id="DejaVuSans-66" d="M 2375 4863 
L 2375 4384 
L 1825 4384 
Q 1516 4384 1395 4259 
Q 1275 4134 1275 3809 
L 1275 3500 
L 2222 3500 
L 2222 3053 
L 1275 3053 
L 1275 0 
L 697 0 
L 697 3053 
L 147 3053 
L 147 3500 
L 697 3500 
L 697 3744 
Q 697 4328 969 4595 
Q 1241 4863 1831 4863 
L 2375 4863 
z
" transform="scale(0.015625)"/>
     </defs>
     <use xlink:href="#DejaVuSans-50" transform="translate(0 0.234375)"/>
     <use xlink:href="#DejaVuSans-43" transform="translate(60.302734 0.234375)"/>
     <use xlink:href="#DejaVuSans-36" transform="translate(130.126953 0.234375)"/>
     <use xlink:href="#DejaVuSans-31" transform="translate(193.75 0.234375)"/>
     <use xlink:href="#DejaVuSans-42" transform="translate(257.373047 0.234375)"/>
     <use xlink:href="#DejaVuSans-4d" transform="translate(325.976562 0.234375)"/>
     <use xlink:href="#DejaVuSans-2c" transform="translate(412.255859 0.234375)"/>
     <use xlink:href="#DejaVuSans-20" transform="translate(444.042969 0.234375)"/>
     <use xlink:href="#DejaVuSans-43" transform="translate(475.830078 0.234375)"/>
     <use xlink:href="#DejaVuSans-20" transform="translate(545.654297 0.234375)"/>
     <use xlink:href="#DejaVuSans-4b" transform="translate(577.441406 0.234375)"/>
     <use xlink:href="#DejaVuSans-2d" transform="translate(643.017578 0.234375)"/>
     <use xlink:href="#DejaVuSans-65" transform="translate(679.101562 0.234375)"/>
     <use xlink:href="#DejaVuSans-64" transform="translate(740.625 0.234375)"/>
     <use xlink:href="#DejaVuSans-67" transform="translate(804.101562 0.234375)"/>
     <use xlink:href="#DejaVuSans-65" transform="translate(867.578125 0.234375)"/>
     <use xlink:href="#DejaVuSans-20" transform="translate(929.101562 0.234375)"/>
     <use xlink:href="#DejaVuSans-28" transform="translate(960.888672 0.234375)"/>
     <use xlink:href="#DejaVuSans-Oblique-3b8" transform="translate(999.902344 0.234375)"/>
     <use xlink:href="#DejaVuSans-3d" transform="translate(1080.566406 0.234375)"/>
     <use xlink:href="#DejaVuSans-35" transform="translate(1183.837891 0.234375)"/>
     <use xlink:href="#DejaVuSans-35" transform="translate(1247.460938 0.234375)"/>
     <use xlink:href="#DejaVuSans-2218" transform="translate(1325.678711 38.515625) scale(0.7)"/>
     <use xlink:href="#DejaVuSans-29" transform="translate(1385.869141 0.234375)"/>
     <use xlink:href="#DejaVuSans-3a" transform="translate(1424.882812 0.234375)"/>
     <use xlink:href="#DejaVuSans-20" transform="translate(1458.574219 0.234375)"/>
     <use xlink:href="#DejaVuSans-69" transform="translate(1490.361328 0.234375)"/>
     <use xlink:href="#DejaVuSans-6e" transform="translate(1518.144531 0.234375)"/>
     <use xlink:href="#DejaVuSans-2d" transform="translate(1581.523438 0.234375)"/>
     <use xlink:href="#DejaVuSans-62" transform="translate(1617.607422 0.234375)"/>
     <use xlink:href="#DejaVuSans-72" transform="translate(1681.083984 0.234375)"/>
     <use xlink:href="#DejaVuSans-6f" transform="translate(1722.197266 0.234375)"/>
     <use xlink:href="#DejaVuSans-77" transform="translate(1783.378906 0.234375)"/>
     <use xlink:href="#DejaVuSans-73" transform="translate(1865.166016 0.234375)"/>
     <use xlink:href="#DejaVuSans-65" transform="translate(1917.265625 0.234375)"/>
     <use xlink:href="#DejaVuSans-72" transform="translate(1978.789062 0.234375)"/>
     <use xlink:href="#DejaVuSans-20" transform="translate(2019.902344 0.234375)"/>
     <use xlink:href="#DejaVuSans-4b" transform="translate(2051.689453 0.234375)"/>
     <use xlink:href="#DejaVuSans-4b" transform="translate(2117.265625 0.234375)"/>
     <use xlink:href="#DejaVuSans-20" transform="translate(2182.841797 0.234375)"/>
     <use xlink:href="#DejaVuSans-76" transform="translate(2214.628906 0.234375)"/>
     <use xlink:href="#DejaVuSans-73" transform="translate(2273.808594 0.234375)"/>
     <use xlink:href="#DejaVuSans-20" transform="translate(2325.908203 0.234375)"/>
     <use xlink:href="#DejaVuSans-6b" transform="translate(2357.695312 0.234375)"/>
     <use xlink:href="#DejaVuSans-6b" transform="translate(2415.605469 0.234375)"/>
     <use xlink:href="#DejaVuSans-63" transform="translate(2473.515625 0.234375)"/>
     <use xlink:href="#DejaVuSans-61" transform="translate(2528.496094 0.234375)"/>
     <use xlink:href="#DejaVuSans-6c" transform="translate(2589.775391 0.234375)"/>
     <use xlink:href="#DejaVuSans-63" transform="translate(2617.558594 0.234375)"/>
     <use xlink:href="#DejaVuSans-32" transform="translate(2672.539062 0.234375)"/>
     <use xlink:href="#DejaVuSans-20" transform="translate(2736.162109 0.234375)"/>
     <use xlink:href="#DejaVuSans-72" transform="translate(2767.949219 0.234375)"/>
     <use xlink:href="#DejaVuSans-65" transform="translate(2809.0625 0.234375)"/>
     <use xlink:href="#DejaVuSans-66" transform="translate(2870.585938 0.234375)"/>
     <use xlink:href="#DejaVuSans-65" transform="translate(2905.791016 0.234375)"/>
     <use xlink:href="#DejaVuSans-72" transform="translate(2967.314453 0.234375)"/>
     <use xlink:href="#DejaVuSans-65" transform="translate(3008.427734 0.234375)"/>
     <use xlink:href="#DejaVuSans-6e" transform="translate(3069.951172 0.234375)"/>
     <use xlink:href="#DejaVuSans-63" transform="translate(3133.330078 0.234375)"/>
     <use xlink:href="#DejaVuSans-65" transform="translate(3188.310547 0.234375)"/>
    </g>
   </g>
   <g id="legend_1">
    <g id="line2d_16">
     <path d="M 319.797813 33.55 
L 328.797813 33.55 
L 337.797813 33.55 
" style="fill: none; stroke: #888888; stroke-width: 1.1; stroke-linecap: square"/>
    </g>
    <g id="text_8">
     <!-- $\beta$ (measured, stored) -->
     <g transform="translate(344.997813 36.7) scale(0.09 -0.09)">
      <defs>
       <path id="DejaVuSans-6d" d="M 3328 2828 
Q 3544 3216 3844 3400 
Q 4144 3584 4550 3584 
Q 5097 3584 5394 3201 
Q 5691 2819 5691 2113 
L 5691 0 
L 5113 0 
L 5113 2094 
Q 5113 2597 4934 2840 
Q 4756 3084 4391 3084 
Q 3944 3084 3684 2787 
Q 3425 2491 3425 1978 
L 3425 0 
L 2847 0 
L 2847 2094 
Q 2847 2600 2669 2842 
Q 2491 3084 2119 3084 
Q 1678 3084 1418 2786 
Q 1159 2488 1159 1978 
L 1159 0 
L 581 0 
L 581 3500 
L 1159 3500 
L 1159 2956 
Q 1356 3278 1631 3431 
Q 1906 3584 2284 3584 
Q 2666 3584 2933 3390 
Q 3200 3197 3328 2828 
z
" transform="scale(0.015625)"/>
       <path id="DejaVuSans-75" d="M 544 1381 
L 544 3500 
L 1119 3500 
L 1119 1403 
Q 1119 906 1312 657 
Q 1506 409 1894 409 
Q 2359 409 2629 706 
Q 2900 1003 2900 1516 
L 2900 3500 
L 3475 3500 
L 3475 0 
L 2900 0 
L 2900 538 
Q 2691 219 2414 64 
Q 2138 -91 1772 -91 
Q 1169 -91 856 284 
Q 544 659 544 1381 
z
M 1991 3584 
L 1991 3584 
z
" transform="scale(0.015625)"/>
       <path id="DejaVuSans-74" d="M 1172 4494 
L 1172 3500 
L 2356 3500 
L 2356 3053 
L 1172 3053 
L 1172 1153 
Q 1172 725 1289 603 
Q 1406 481 1766 481 
L 2356 481 
L 2356 0 
L 1766 0 
Q 1100 0 847 248 
Q 594 497 594 1153 
L 594 3053 
L 172 3053 
L 172 3500 
L 594 3500 
L 594 4494 
L 1172 4494 
z
" transform="scale(0.015625)"/>
      </defs>
      <use xlink:href="#DejaVuSans-Oblique-3b2" transform="translate(0 0.390625)"/>
      <use xlink:href="#DejaVuSans-20" transform="translate(63.818359 0.390625)"/>
      <use xlink:href="#DejaVuSans-28" transform="translate(95.605469 0.390625)"/>
      <use xlink:href="#DejaVuSans-6d" transform="translate(134.619141 0.390625)"/>
      <use xlink:href="#DejaVuSans-65" transform="translate(232.03125 0.390625)"/>
      <use xlink:href="#DejaVuSans-61" transform="translate(293.554688 0.390625)"/>
      <use xlink:href="#DejaVuSans-73" transform="translate(354.833984 0.390625)"/>
      <use xlink:href="#DejaVuSans-75" transform="translate(406.933594 0.390625)"/>
      <use xlink:href="#DejaVuSans-72" transform="translate(470.3125 0.390625)"/>
      <use xlink:href="#DejaVuSans-65" transform="translate(511.425781 0.390625)"/>
      <use xlink:href="#DejaVuSans-64" transform="translate(572.949219 0.390625)"/>
      <use xlink:href="#DejaVuSans-2c" transform="translate(636.425781 0.390625)"/>
      <use xlink:href="#DejaVuSans-20" transform="translate(668.212891 0.390625)"/>
      <use xlink:href="#DejaVuSans-73" transform="translate(700 0.390625)"/>
      <use xlink:href="#DejaVuSans-74" transform="translate(752.099609 0.390625)"/>
      <use xlink:href="#DejaVuSans-6f" transform="translate(791.308594 0.390625)"/>
      <use xlink:href="#DejaVuSans-72" transform="translate(852.490234 0.390625)"/>
      <use xlink:href="#DejaVuSans-65" transform="translate(893.603516 0.390625)"/>
      <use xlink:href="#DejaVuSans-64" transform="translate(955.126953 0.390625)"/>
      <use xlink:href="#DejaVuSans-29" transform="translate(1018.603516 0.390625)"/>
     </g>
    </g>
    <g id="line2d_17">
     <path d="M 319.797813 46.78 
L 328.797813 46.78 
L 337.797813 46.78 
" style="fill: none; stroke: #9e1b32; stroke-width: 1.4; stroke-linecap: square"/>
    </g>
    <g id="text_9">
     <!-- $\delta$ (browser KK, persisted) -->
     <g transform="translate(344.997813 49.93) scale(0.09 -0.09)">
      <defs>
       <path id="DejaVuSans-70" d="M 1159 525 
L 1159 -1331 
L 581 -1331 
L 581 3500 
L 1159 3500 
L 1159 2969 
Q 1341 3281 1617 3432 
Q 1894 3584 2278 3584 
Q 2916 3584 3314 3078 
Q 3713 2572 3713 1747 
Q 3713 922 3314 415 
Q 2916 -91 2278 -91 
Q 1894 -91 1617 61 
Q 1341 213 1159 525 
z
M 3116 1747 
Q 3116 2381 2855 2742 
Q 2594 3103 2138 3103 
Q 1681 3103 1420 2742 
Q 1159 2381 1159 1747 
Q 1159 1113 1420 752 
Q 1681 391 2138 391 
Q 2594 391 2855 752 
Q 3116 1113 3116 1747 
z
" transform="scale(0.015625)"/>
      </defs>
      <use xlink:href="#DejaVuSans-Oblique-3b4" transform="translate(0 0.015625)"/>
      <use xlink:href="#DejaVuSans-20" transform="translate(61.181641 0.015625)"/>
      <use xlink:href="#DejaVuSans-28" transform="translate(92.96875 0.015625)"/>
      <use xlink:href="#DejaVuSans-62" transform="translate(131.982422 0.015625)"/>
      <use xlink:href="#DejaVuSans-72" transform="translate(195.458984 0.015625)"/>
      <use xlink:href="#DejaVuSans-6f" transform="translate(236.572266 0.015625)"/>
      <use xlink:href="#DejaVuSans-77" transform="translate(297.753906 0.015625)"/>
      <use xlink:href="#DejaVuSans-73" transform="translate(379.541016 0.015625)"/>
      <use xlink:href="#DejaVuSans-65" transform="translate(431.640625 0.015625)"/>
      <use xlink:href="#DejaVuSans-72" transform="translate(493.164062 0.015625)"/>
      <use xlink:href="#DejaVuSans-20" transform="translate(534.277344 0.015625)"/>
      <use xlink:href="#DejaVuSans-4b" transform="translate(566.064453 0.015625)"/>
      <use xlink:href="#DejaVuSans-4b" transform="translate(631.640625 0.015625)"/>
      <use xlink:href="#DejaVuSans-2c" transform="translate(697.216797 0.015625)"/>
      <use xlink:href="#DejaVuSans-20" transform="translate(729.003906 0.015625)"/>
      <use xlink:href="#DejaVuSans-70" transform="translate(760.791016 0.015625)"/>
      <use xlink:href="#DejaVuSans-65" transform="translate(824.267578 0.015625)"/>
      <use xlink:href="#DejaVuSans-72" transform="translate(885.791016 0.015625)"/>
      <use xlink:href="#DejaVuSans-73" transform="translate(926.904297 0.015625)"/>
      <use xlink:href="#DejaVuSans-69" transform="translate(979.003906 0.015625)"/>
      <use xlink:href="#DejaVuSans-73" transform="translate(1006.787109 0.015625)"/>
      <use xlink:href="#DejaVuSans-74" transform="translate(1058.886719 0.015625)"/>
      <use xlink:href="#DejaVuSans-65" transform="translate(1098.095703 0.015625)"/>
      <use xlink:href="#DejaVuSans-64" transform="translate(1159.619141 0.015625)"/>
      <use xlink:href="#DejaVuSans-29" transform="translate(1223.095703 0.015625)"/>
     </g>
    </g>
    <g id="line2d_18">
     <path d="M 319.797813 60.008594 
L 328.797813 60.008594 
L 337.797813 60.008594 
" style="fill: none; stroke-dasharray: 4.4,2.2; stroke-dashoffset: 0; stroke: #1f4e8c; stroke-width: 1.1"/>
    </g>
    <g id="text_10">
     <!-- $\delta$ (kkcalc2 reference) -->
     <g transform="translate(344.997813 63.158594) scale(0.09 -0.09)">
      <use xlink:href="#DejaVuSans-Oblique-3b4" transform="translate(0 0.015625)"/>
      <use xlink:href="#DejaVuSans-20" transform="translate(61.181641 0.015625)"/>
      <use xlink:href="#DejaVuSans-28" transform="translate(92.96875 0.015625)"/>
      <use xlink:href="#DejaVuSans-6b" transform="translate(131.982422 0.015625)"/>
      <use xlink:href="#DejaVuSans-6b" transform="translate(189.892578 0.015625)"/>
      <use xlink:href="#DejaVuSans-63" transform="translate(247.802734 0.015625)"/>
      <use xlink:href="#DejaVuSans-61" transform="translate(302.783203 0.015625)"/>
      <use xlink:href="#DejaVuSans-6c" transform="translate(364.0625 0.015625)"/>
      <use xlink:href="#DejaVuSans-63" transform="translate(391.845703 0.015625)"/>
      <use xlink:href="#DejaVuSans-32" transform="translate(446.826172 0.015625)"/>
      <use xlink:href="#DejaVuSans-20" transform="translate(510.449219 0.015625)"/>
      <use xlink:href="#DejaVuSans-72" transform="translate(542.236328 0.015625)"/>
      <use xlink:href="#DejaVuSans-65" transform="translate(583.349609 0.015625)"/>
      <use xlink:href="#DejaVuSans-66" transform="translate(644.873047 0.015625)"/>
      <use xlink:href="#DejaVuSans-65" transform="translate(680.078125 0.015625)"/>
      <use xlink:href="#DejaVuSans-72" transform="translate(741.601562 0.015625)"/>
      <use xlink:href="#DejaVuSans-65" transform="translate(782.714844 0.015625)"/>
      <use xlink:href="#DejaVuSans-6e" transform="translate(844.238281 0.015625)"/>
      <use xlink:href="#DejaVuSans-63" transform="translate(907.617188 0.015625)"/>
      <use xlink:href="#DejaVuSans-65" transform="translate(962.597656 0.015625)"/>
      <use xlink:href="#DejaVuSans-29" transform="translate(1024.121094 0.015625)"/>
     </g>
    </g>
   </g>
  </g>
  <g id="axes_2">
   <g id="patch_5">
    <path d="M 65.007812 332.134 
L 466.767812 332.134 
L 466.767812 249.410738 
L 65.007812 249.410738 
z
" style="fill: #ffffff"/>
   </g>
   <g id="matplotlib.axis_3">
    <g id="xtick_8">
     <g id="line2d_19">
      <g>
       <use xlink:href="#m2e5e88d9dc" x="80.825671" y="332.134" style="stroke: #000000; stroke-width: 0.8"/>
      </g>
     </g>
     <g id="text_11">
      <!-- 270 -->
      <g transform="translate(71.281921 346.732437) scale(0.1 -0.1)">
       <defs>
        <path id="DejaVuSans-37" d="M 525 4666 
L 3525 4666 
L 3525 4397 
L 1831 0 
L 1172 0 
L 2766 4134 
L 525 4134 
L 525 4666 
z
" transform="scale(0.015625)"/>
       </defs>
       <use xlink:href="#DejaVuSans-32"/>
       <use xlink:href="#DejaVuSans-37" transform="translate(63.623047 0)"/>
       <use xlink:href="#DejaVuSans-30" transform="translate(127.246094 0)"/>
      </g>
     </g>
    </g>
    <g id="xtick_9">
     <g id="line2d_20">
      <g>
       <use xlink:href="#m2e5e88d9dc" x="141.901751" y="332.134" style="stroke: #000000; stroke-width: 0.8"/>
      </g>
     </g>
     <g id="text_12">
      <!-- 280 -->
      <g transform="translate(132.358001 346.732437) scale(0.1 -0.1)">
       <defs>
        <path id="DejaVuSans-38" d="M 2034 2216 
Q 1584 2216 1326 1975 
Q 1069 1734 1069 1313 
Q 1069 891 1326 650 
Q 1584 409 2034 409 
Q 2484 409 2743 651 
Q 3003 894 3003 1313 
Q 3003 1734 2745 1975 
Q 2488 2216 2034 2216 
z
M 1403 2484 
Q 997 2584 770 2862 
Q 544 3141 544 3541 
Q 544 4100 942 4425 
Q 1341 4750 2034 4750 
Q 2731 4750 3128 4425 
Q 3525 4100 3525 3541 
Q 3525 3141 3298 2862 
Q 3072 2584 2669 2484 
Q 3125 2378 3379 2068 
Q 3634 1759 3634 1313 
Q 3634 634 3220 271 
Q 2806 -91 2034 -91 
Q 1263 -91 848 271 
Q 434 634 434 1313 
Q 434 1759 690 2068 
Q 947 2378 1403 2484 
z
M 1172 3481 
Q 1172 3119 1398 2916 
Q 1625 2713 2034 2713 
Q 2441 2713 2670 2916 
Q 2900 3119 2900 3481 
Q 2900 3844 2670 4047 
Q 2441 4250 2034 4250 
Q 1625 4250 1398 4047 
Q 1172 3844 1172 3481 
z
" transform="scale(0.015625)"/>
       </defs>
       <use xlink:href="#DejaVuSans-32"/>
       <use xlink:href="#DejaVuSans-38" transform="translate(63.623047 0)"/>
       <use xlink:href="#DejaVuSans-30" transform="translate(127.246094 0)"/>
      </g>
     </g>
    </g>
    <g id="xtick_10">
     <g id="line2d_21">
      <g>
       <use xlink:href="#m2e5e88d9dc" x="202.977832" y="332.134" style="stroke: #000000; stroke-width: 0.8"/>
      </g>
     </g>
     <g id="text_13">
      <!-- 290 -->
      <g transform="translate(193.434082 346.732437) scale(0.1 -0.1)">
       <defs>
        <path id="DejaVuSans-39" d="M 703 97 
L 703 672 
Q 941 559 1184 500 
Q 1428 441 1663 441 
Q 2288 441 2617 861 
Q 2947 1281 2994 2138 
Q 2813 1869 2534 1725 
Q 2256 1581 1919 1581 
Q 1219 1581 811 2004 
Q 403 2428 403 3163 
Q 403 3881 828 4315 
Q 1253 4750 1959 4750 
Q 2769 4750 3195 4129 
Q 3622 3509 3622 2328 
Q 3622 1225 3098 567 
Q 2575 -91 1691 -91 
Q 1453 -91 1209 -44 
Q 966 3 703 97 
z
M 1959 2075 
Q 2384 2075 2632 2365 
Q 2881 2656 2881 3163 
Q 2881 3666 2632 3958 
Q 2384 4250 1959 4250 
Q 1534 4250 1286 3958 
Q 1038 3666 1038 3163 
Q 1038 2656 1286 2365 
Q 1534 2075 1959 2075 
z
" transform="scale(0.015625)"/>
       </defs>
       <use xlink:href="#DejaVuSans-32"/>
       <use xlink:href="#DejaVuSans-39" transform="translate(63.623047 0)"/>
       <use xlink:href="#DejaVuSans-30" transform="translate(127.246094 0)"/>
      </g>
     </g>
    </g>
    <g id="xtick_11">
     <g id="line2d_22">
      <g>
       <use xlink:href="#m2e5e88d9dc" x="264.053912" y="332.134" style="stroke: #000000; stroke-width: 0.8"/>
      </g>
     </g>
     <g id="text_14">
      <!-- 300 -->
      <g transform="translate(254.510162 346.732437) scale(0.1 -0.1)">
       <defs>
        <path id="DejaVuSans-33" d="M 2597 2516 
Q 3050 2419 3304 2112 
Q 3559 1806 3559 1356 
Q 3559 666 3084 287 
Q 2609 -91 1734 -91 
Q 1441 -91 1130 -33 
Q 819 25 488 141 
L 488 750 
Q 750 597 1062 519 
Q 1375 441 1716 441 
Q 2309 441 2620 675 
Q 2931 909 2931 1356 
Q 2931 1769 2642 2001 
Q 2353 2234 1838 2234 
L 1294 2234 
L 1294 2753 
L 1863 2753 
Q 2328 2753 2575 2939 
Q 2822 3125 2822 3475 
Q 2822 3834 2567 4026 
Q 2313 4219 1838 4219 
Q 1578 4219 1281 4162 
Q 984 4106 628 3988 
L 628 4550 
Q 988 4650 1302 4700 
Q 1616 4750 1894 4750 
Q 2613 4750 3031 4423 
Q 3450 4097 3450 3541 
Q 3450 3153 3228 2886 
Q 3006 2619 2597 2516 
z
" transform="scale(0.015625)"/>
       </defs>
       <use xlink:href="#DejaVuSans-33"/>
       <use xlink:href="#DejaVuSans-30" transform="translate(63.623047 0)"/>
       <use xlink:href="#DejaVuSans-30" transform="translate(127.246094 0)"/>
      </g>
     </g>
    </g>
    <g id="xtick_12">
     <g id="line2d_23">
      <g>
       <use xlink:href="#m2e5e88d9dc" x="325.129992" y="332.134" style="stroke: #000000; stroke-width: 0.8"/>
      </g>
     </g>
     <g id="text_15">
      <!-- 310 -->
      <g transform="translate(315.586242 346.732437) scale(0.1 -0.1)">
       <use xlink:href="#DejaVuSans-33"/>
       <use xlink:href="#DejaVuSans-31" transform="translate(63.623047 0)"/>
       <use xlink:href="#DejaVuSans-30" transform="translate(127.246094 0)"/>
      </g>
     </g>
    </g>
    <g id="xtick_13">
     <g id="line2d_24">
      <g>
       <use xlink:href="#m2e5e88d9dc" x="386.206072" y="332.134" style="stroke: #000000; stroke-width: 0.8"/>
      </g>
     </g>
     <g id="text_16">
      <!-- 320 -->
      <g transform="translate(376.662322 346.732437) scale(0.1 -0.1)">
       <use xlink:href="#DejaVuSans-33"/>
       <use xlink:href="#DejaVuSans-32" transform="translate(63.623047 0)"/>
       <use xlink:href="#DejaVuSans-30" transform="translate(127.246094 0)"/>
      </g>
     </g>
    </g>
    <g id="xtick_14">
     <g id="line2d_25">
      <g>
       <use xlink:href="#m2e5e88d9dc" x="447.282152" y="332.134" style="stroke: #000000; stroke-width: 0.8"/>
      </g>
     </g>
     <g id="text_17">
      <!-- 330 -->
      <g transform="translate(437.738402 346.732437) scale(0.1 -0.1)">
       <use xlink:href="#DejaVuSans-33"/>
       <use xlink:href="#DejaVuSans-33" transform="translate(63.623047 0)"/>
       <use xlink:href="#DejaVuSans-30" transform="translate(127.246094 0)"/>
      </g>
     </g>
    </g>
    <g id="text_18">
     <!-- Photon energy (eV) -->
     <g transform="translate(217.456562 360.410562) scale(0.1 -0.1)">
      <defs>
       <path id="DejaVuSans-68" d="M 3513 2113 
L 3513 0 
L 2938 0 
L 2938 2094 
Q 2938 2591 2744 2837 
Q 2550 3084 2163 3084 
Q 1697 3084 1428 2787 
Q 1159 2491 1159 1978 
L 1159 0 
L 581 0 
L 581 4863 
L 1159 4863 
L 1159 2956 
Q 1366 3272 1645 3428 
Q 1925 3584 2291 3584 
Q 2894 3584 3203 3211 
Q 3513 2838 3513 2113 
z
" transform="scale(0.015625)"/>
       <path id="DejaVuSans-79" d="M 2059 -325 
Q 1816 -950 1584 -1140 
Q 1353 -1331 966 -1331 
L 506 -1331 
L 506 -850 
L 844 -850 
Q 1081 -850 1212 -737 
Q 1344 -625 1503 -206 
L 1606 56 
L 191 3500 
L 800 3500 
L 1894 763 
L 2988 3500 
L 3597 3500 
L 2059 -325 
z
" transform="scale(0.015625)"/>
       <path id="DejaVuSans-56" d="M 1831 0 
L 50 4666 
L 709 4666 
L 2188 738 
L 3669 4666 
L 4325 4666 
L 2547 0 
L 1831 0 
z
" transform="scale(0.015625)"/>
      </defs>
      <use xlink:href="#DejaVuSans-50"/>
      <use xlink:href="#DejaVuSans-68" transform="translate(60.302734 0)"/>
      <use xlink:href="#DejaVuSans-6f" transform="translate(123.681641 0)"/>
      <use xlink:href="#DejaVuSans-74" transform="translate(184.863281 0)"/>
      <use xlink:href="#DejaVuSans-6f" transform="translate(224.072266 0)"/>
      <use xlink:href="#DejaVuSans-6e" transform="translate(285.253906 0)"/>
      <use xlink:href="#DejaVuSans-20" transform="translate(348.632812 0)"/>
      <use xlink:href="#DejaVuSans-65" transform="translate(380.419922 0)"/>
      <use xlink:href="#DejaVuSans-6e" transform="translate(441.943359 0)"/>
      <use xlink:href="#DejaVuSans-65" transform="translate(505.322266 0)"/>
      <use xlink:href="#DejaVuSans-72" transform="translate(566.845703 0)"/>
      <use xlink:href="#DejaVuSans-67" transform="translate(606.208984 0)"/>
      <use xlink:href="#DejaVuSans-79" transform="translate(669.685547 0)"/>
      <use xlink:href="#DejaVuSans-20" transform="translate(728.865234 0)"/>
      <use xlink:href="#DejaVuSans-28" transform="translate(760.652344 0)"/>
      <use xlink:href="#DejaVuSans-65" transform="translate(799.666016 0)"/>
      <use xlink:href="#DejaVuSans-56" transform="translate(861.189453 0)"/>
      <use xlink:href="#DejaVuSans-29" transform="translate(929.597656 0)"/>
     </g>
    </g>
   </g>
   <g id="matplotlib.axis_4">
    <g id="ytick_6">
     <g id="line2d_26">
      <g>
       <use xlink:href="#m1940428fdb" x="65.007812" y="316.126719" style="stroke: #000000; stroke-width: 0.8"/>
      </g>
     </g>
     <g id="text_19">
      <!-- 0.0000 -->
      <g transform="translate(23.017187 319.925938) scale(0.1 -0.1)">
       <use xlink:href="#DejaVuSans-30"/>
       <use xlink:href="#DejaVuSans-2e" transform="translate(63.623047 0)"/>
       <use xlink:href="#DejaVuSans-30" transform="translate(95.410156 0)"/>
       <use xlink:href="#DejaVuSans-30" transform="translate(159.033203 0)"/>
       <use xlink:href="#DejaVuSans-30" transform="translate(222.65625 0)"/>
       <use xlink:href="#DejaVuSans-30" transform="translate(286.279297 0)"/>
      </g>
     </g>
    </g>
    <g id="ytick_7">
     <g id="line2d_27">
      <g>
       <use xlink:href="#m1940428fdb" x="65.007812" y="289.603499" style="stroke: #000000; stroke-width: 0.8"/>
      </g>
     </g>
     <g id="text_20">
      <!-- 0.0002 -->
      <g transform="translate(23.017187 293.402718) scale(0.1 -0.1)">
       <use xlink:href="#DejaVuSans-30"/>
       <use xlink:href="#DejaVuSans-2e" transform="translate(63.623047 0)"/>
       <use xlink:href="#DejaVuSans-30" transform="translate(95.410156 0)"/>
       <use xlink:href="#DejaVuSans-30" transform="translate(159.033203 0)"/>
       <use xlink:href="#DejaVuSans-30" transform="translate(222.65625 0)"/>
       <use xlink:href="#DejaVuSans-32" transform="translate(286.279297 0)"/>
      </g>
     </g>
    </g>
    <g id="ytick_8">
     <g id="line2d_28">
      <g>
       <use xlink:href="#m1940428fdb" x="65.007812" y="263.080279" style="stroke: #000000; stroke-width: 0.8"/>
      </g>
     </g>
     <g id="text_21">
      <!-- 0.0004 -->
      <g transform="translate(23.017187 266.879498) scale(0.1 -0.1)">
       <use xlink:href="#DejaVuSans-30"/>
       <use xlink:href="#DejaVuSans-2e" transform="translate(63.623047 0)"/>
       <use xlink:href="#DejaVuSans-30" transform="translate(95.410156 0)"/>
       <use xlink:href="#DejaVuSans-30" transform="translate(159.033203 0)"/>
       <use xlink:href="#DejaVuSans-30" transform="translate(222.65625 0)"/>
       <use xlink:href="#DejaVuSans-34" transform="translate(286.279297 0)"/>
      </g>
     </g>
    </g>
    <g id="text_22">
     <!-- $\delta_{\rm kkcalc2}-\delta_{\rm Atlas}$ -->
     <g transform="translate(17.145469 321.822369) rotate(-90) scale(0.09 -0.09)">
      <defs>
       <path id="DejaVuSans-41" d="M 2188 4044 
L 1331 1722 
L 3047 1722 
L 2188 4044 
z
M 1831 4666 
L 2547 4666 
L 4325 0 
L 3669 0 
L 3244 1197 
L 1141 1197 
L 716 0 
L 50 0 
L 1831 4666 
z
" transform="scale(0.015625)"/>
      </defs>
      <use xlink:href="#DejaVuSans-Oblique-3b4" transform="translate(0 0.78125)"/>
      <use xlink:href="#DejaVuSans-6b" transform="translate(61.181641 -15.625) scale(0.7)"/>
      <use xlink:href="#DejaVuSans-6b" transform="translate(101.71875 -15.625) scale(0.7)"/>
      <use xlink:href="#DejaVuSans-63" transform="translate(142.255859 -15.625) scale(0.7)"/>
      <use xlink:href="#DejaVuSans-61" transform="translate(180.742188 -15.625) scale(0.7)"/>
      <use xlink:href="#DejaVuSans-6c" transform="translate(223.637695 -15.625) scale(0.7)"/>
      <use xlink:href="#DejaVuSans-63" transform="translate(243.085938 -15.625) scale(0.7)"/>
      <use xlink:href="#DejaVuSans-32" transform="translate(281.572266 -15.625) scale(0.7)"/>
      <use xlink:href="#DejaVuSans-2212" transform="translate(348.325195 0.78125)"/>
      <use xlink:href="#DejaVuSans-Oblique-3b4" transform="translate(451.59668 0.78125)"/>
      <use xlink:href="#DejaVuSans-41" transform="translate(512.77832 -15.625) scale(0.7)"/>
      <use xlink:href="#DejaVuSans-74" transform="translate(560.664062 -15.625) scale(0.7)"/>
      <use xlink:href="#DejaVuSans-6c" transform="translate(588.110352 -15.625) scale(0.7)"/>
      <use xlink:href="#DejaVuSans-61" transform="translate(607.558594 -15.625) scale(0.7)"/>
      <use xlink:href="#DejaVuSans-73" transform="translate(650.454102 -15.625) scale(0.7)"/>
     </g>
    </g>
   </g>
   <g id="line2d_29">
    <path d="M 65.007812 316.126719 
L 466.767812 316.126719 
" clip-path="url(#p1850b7a50e)" style="fill: none; stroke: #bbbbbb; stroke-width: 0.8; stroke-linecap: square"/>
   </g>
   <g id="line2d_30">
    <path d="M 83.269631 307.976168 
L 83.876666 308.111099 
L 84.493656 308.621782 
L 85.712979 308.486758 
L 86.323068 308.737002 
L 86.934012 308.741438 
L 88.153579 308.448287 
L 88.765684 308.136006 
L 89.378888 308.232488 
L 89.9869 308.599928 
L 91.212208 308.560308 
L 91.825657 308.680032 
L 92.431409 308.332717 
L 93.039971 308.158959 
L 93.657084 308.395495 
L 95.490221 308.691168 
L 96.706246 308.114509 
L 97.286835 308.167967 
L 98.532665 307.748562 
L 99.150938 307.681869 
L 99.756874 307.346453 
L 100.372704 307.260731 
L 100.977724 307.804762 
L 101.593004 307.947489 
L 102.199856 307.710595 
L 103.427974 307.606507 
L 104.033971 307.421529 
L 104.649007 307.422452 
L 105.868391 307.090369 
L 106.483672 307.076989 
L 107.695543 306.548445 
L 108.920729 306.867325 
L 110.142862 306.850182 
L 110.7546 306.424484 
L 111.36933 306.307604 
L 111.975266 306.404105 
L 112.610457 306.206792 
L 113.200391 306.418473 
L 113.80877 306.356513 
L 114.419775 305.989786 
L 115.643557 305.982808 
L 116.253829 306.003313 
L 116.865384 305.805899 
L 118.08434 305.870692 
L 118.696628 305.531563 
L 119.914912 305.30156 
L 120.520848 305.289113 
L 121.750248 304.797612 
L 122.341465 304.733603 
L 123.575568 304.020517 
L 124.189383 303.895434 
L 124.800693 304.09145 
L 125.418417 303.993667 
L 126.02252 303.627932 
L 126.632731 303.612846 
L 127.856574 303.786225 
L 128.466235 303.522773 
L 129.079622 303.477714 
L 129.686902 303.602894 
L 131.482783 302.972112 
L 132.127685 303.216422 
L 132.739423 302.98709 
L 133.308836 302.348349 
L 133.952639 302.331453 
L 134.571828 302.465389 
L 135.171045 302.224843 
L 135.794143 301.838585 
L 137.017803 302.015949 
L 138.851307 300.602552 
L 139.463961 300.61762 
L 140.071607 300.148334 
L 140.686704 299.880977 
L 141.290197 300.058729 
L 142.511413 299.495131 
L 151.061698 295.750901 
L 154.12051 293.99798 
L 157.782509 291.375309 
L 158.992366 290.254047 
L 159.9206 289.284207 
L 161.142182 287.794917 
L 162.058812 286.44276 
L 163.279662 284.238089 
L 164.194643 282.140927 
L 164.806931 280.270296 
L 165.414393 278.002881 
L 166.337375 273.160383 
L 166.641961 270.763128 
L 166.942395 267.373989 
L 167.865621 253.170886 
L 168.780235 272.371881 
L 169.38953 291.002699 
L 170.304327 301.489322 
L 170.614472 302.000854 
L 170.918081 301.278662 
L 171.838314 296.010886 
L 172.138381 295.435421 
L 173.051529 294.624256 
L 173.657832 292.807647 
L 174.275006 290.512029 
L 175.190902 285.286274 
L 175.493962 285.376593 
L 175.802274 284.943057 
L 176.107532 283.897019 
L 176.409859 284.773741 
L 177.632235 292.447359 
L 177.94128 293.394678 
L 178.238355 293.820138 
L 178.54514 293.791107 
L 179.152419 294.181997 
L 179.441675 294.591698 
L 179.770692 295.635131 
L 180.380537 298.33327 
L 180.992275 298.768546 
L 181.290509 299.279922 
L 181.607372 299.314493 
L 181.907256 299.183989 
L 182.2083 298.616887 
L 182.5171 298.287132 
L 182.825229 298.295274 
L 183.135007 298.09856 
L 183.739294 296.95178 
L 184.961793 294.118389 
L 185.269921 293.50721 
L 185.572615 293.175511 
L 186.182826 292.982584 
L 186.485702 292.741648 
L 187.722065 292.652372 
L 188.01633 292.508622 
L 188.624708 291.762386 
L 189.850261 289.694233 
L 190.152954 289.08855 
L 190.45919 288.776074 
L 190.763348 288.962864 
L 191.38663 290.586368 
L 191.680223 290.97076 
L 192.289151 292.262802 
L 193.515375 295.612198 
L 194.123754 296.976901 
L 194.430173 297.064781 
L 195.01064 297.634361 
L 195.659818 297.652092 
L 196.259218 297.217324 
L 196.868147 296.495031 
L 197.476709 295.995326 
L 199.007153 294.363282 
L 201.145244 292.079775 
L 201.759608 291.489283 
L 202.066576 291.353956 
L 202.975022 290.373609 
L 203.591768 289.756098 
L 204.175595 289.736118 
L 204.798082 289.103636 
L 205.114761 288.990197 
L 205.423073 289.201327 
L 206.032918 290.441923 
L 206.333229 290.705658 
L 206.947716 292.08902 
L 208.168565 295.611951 
L 208.78067 296.950285 
L 209.08379 297.34468 
L 209.694185 297.619647 
L 209.997428 297.98249 
L 210.614968 298.199252 
L 211.528055 298.392453 
L 212.445845 298.598397 
L 213.056118 298.964188 
L 213.361376 298.97376 
L 214.582836 299.498057 
L 215.500749 299.679848 
L 216.111021 299.777579 
L 216.732043 300.134413 
L 217.331871 300.229303 
L 217.943242 300.628598 
L 218.551438 301.312657 
L 219.161466 301.789782 
L 221.911294 304.357675 
L 222.827741 304.817632 
L 223.440028 304.880031 
L 224.054759 305.000917 
L 224.980917 304.909233 
L 227.411623 304.289716 
L 230.154916 303.153101 
L 230.768853 303.122756 
L 231.374056 302.857311 
L 231.686826 302.833043 
L 232.28983 303.072597 
L 232.604067 303.0181 
L 233.214278 303.254546 
L 233.821741 303.803004 
L 234.440563 304.30716 
L 236.572485 306.027915 
L 238.405073 307.048906 
L 239.62293 307.346385 
L 242.062919 307.516257 
L 243.287495 307.637236 
L 243.885857 307.904489 
L 246.344658 308.442638 
L 246.955846 308.724992 
L 248.193492 309.50146 
L 249.391988 309.970746 
L 251.231599 310.890684 
L 254.892316 312.149712 
L 258.564577 313.028362 
L 259.771074 313.594156 
L 261.0031 313.992477 
L 263.450785 315.271043 
L 268.943296 318.405969 
L 270.773441 319.35296 
L 273.827428 320.896099 
L 275.052187 321.31056 
L 276.881599 322.065127 
L 278.714553 322.55417 
L 280.549584 323.080108 
L 282.372277 323.62075 
L 286.654932 324.531314 
L 287.878225 324.684141 
L 289.710385 325.016794 
L 294.593234 325.562103 
L 298.258227 326.357263 
L 301.921142 327.056319 
L 303.752631 327.266232 
L 304.97513 327.190897 
L 306.196163 327.296016 
L 307.417806 327.220314 
L 308.64458 327.020415 
L 309.857796 326.962771 
L 314.134892 326.350776 
L 315.931506 326.054754 
L 320.238408 325.458727 
L 328.796633 324.776022 
L 341.622671 324.388965 
L 352.619053 324.578898 
L 359.338582 324.824811 
L 367.886424 324.947721 
L 369.723287 324.959576 
L 373.991589 324.939982 
L 386.833079 325.009276 
L 388.052463 325.188374 
L 390.479443 325.368309 
L 391.696933 325.545554 
L 392.315329 325.67142 
L 392.928044 325.588783 
L 395.976779 326.196985 
L 396.588517 326.398255 
L 398.424647 326.456019 
L 399.64287 326.840435 
L 400.252349 326.759835 
L 400.861521 326.883199 
L 401.46593 327.12075 
L 403.305786 327.307729 
L 403.92125 327.499535 
L 410.621601 327.946257 
L 411.250868 328.166449 
L 411.860163 328.039856 
L 413.677848 328.199479 
L 414.910608 328.001031 
L 415.522896 328.229592 
L 416.740569 328.21587 
L 417.356766 328.30977 
L 418.578532 328.333732 
L 419.188621 328.048714 
L 420.412463 328.373852 
L 421.027316 328.219819 
L 421.630137 328.207883 
L 422.243341 328.005239 
L 423.464007 328.23898 
L 424.09419 327.981783 
L 425.291343 327.897576 
L 425.908517 328.094684 
L 427.737379 328.016858 
L 429.572532 327.712056 
L 430.795824 327.748192 
L 431.400661 327.584903 
L 432.012949 327.645618 
L 432.628046 327.545698 
L 433.845903 327.597962 
L 434.46045 327.49614 
L 435.070845 327.566491 
L 435.679956 327.381621 
L 436.897997 327.646796 
L 438.126725 327.512666 
L 438.731195 327.368844 
L 439.965054 327.385414 
L 441.17662 327.110393 
L 442.396676 327.09654 
L 443.008048 326.885614 
L 445.447549 326.766949 
L 446.062768 326.576115 
L 446.660886 326.537031 
L 447.283068 326.267999 
L 448.505994 326.153539 
L 448.505994 326.153539 
" clip-path="url(#p1850b7a50e)" style="fill: none; stroke: #1f4e8c; stroke-linecap: square"/>
   </g>
   <g id="patch_6">
    <path d="M 65.007812 332.134 
L 65.007812 249.410738 
" style="fill: none; stroke: #000000; stroke-width: 0.8; stroke-linejoin: miter; stroke-linecap: square"/>
   </g>
   <g id="patch_7">
    <path d="M 65.007812 332.134 
L 466.767812 332.134 
" style="fill: none; stroke: #000000; stroke-width: 0.8; stroke-linejoin: miter; stroke-linecap: square"/>
   </g>
  </g>
 </g>
 <defs>
  <clipPath id="p632c142b69">
   <rect x="65.007812" y="21.67" width="401.76" height="215.799815"/>
  </clipPath>
  <clipPath id="p1850b7a50e">
   <rect x="65.007812" y="249.410738" width="401.76" height="82.723262"/>
  </clipPath>
 </defs>
</svg>
